999
"DXF R12 Output" (www.mydxf.blogspot.com)
 0 
SECTION
 2 
HEADER
 9 
$ACADVER
 1 
AC1009
 9 
$EXTMIN
 10 
 0 
 20 
 0 
 9 
$EXTMAX
 10 
 8.5 
 20 
 11 
 0 
ENDSEC
 0 
SECTION
 2 
ENTITIES
0
LINE
8
Layer 1
10
14.788100
20
45.570800
11
14.870174
21
45.673458
0
LINE
8
Layer 1
10
14.870174
20
45.673458
11
15.850859
21
46.234792
0
LINE
8
Layer 1
10
15.850859
20
46.234792
11
18.120720
21
47.174318
0
LINE
8
Layer 1
10
18.120720
20
47.174318
11
19.761447
21
47.665970
0
LINE
8
Layer 1
10
19.761447
20
47.665970
11
21.751297
21
48.108250
0
LINE
8
Layer 1
10
21.751297
20
48.108250
11
24.099211
21
48.453185
0
LINE
8
Layer 1
10
24.099211
20
48.453185
11
26.814131
21
48.652800
0
LINE
8
Layer 1
10
26.814131
20
48.652800
11
29.905002
21
48.659122
0
LINE
8
Layer 1
10
29.905002
20
48.659122
11
33.380765
21
48.424179
0
LINE
8
Layer 1
10
33.380765
20
48.424179
11
37.250363
21
47.899996
0
LINE
8
Layer 1
10
37.250363
20
47.899996
11
41.522739
21
47.038600
0
LINE
8
Layer 1
10
41.522739
20
47.038600
11
46.206835
21
45.792018
0
LINE
8
Layer 1
10
46.206835
20
45.792018
11
51.311595
21
44.112276
0
LINE
8
Layer 1
10
51.311595
20
44.112276
11
56.845960
21
41.951400
0
LINE
8
Layer 1
10
56.845960
20
41.951400
11
62.818874
21
39.261418
0
LINE
8
Layer 1
10
62.818874
20
39.261418
11
65.744751
21
37.952180
0
LINE
8
Layer 1
10
65.744751
20
37.952180
11
68.667382
21
36.824730
0
LINE
8
Layer 1
10
68.667382
20
36.824730
11
71.581992
21
35.870555
0
LINE
8
Layer 1
10
71.581992
20
35.870555
11
74.483806
21
35.081142
0
LINE
8
Layer 1
10
74.483806
20
35.081142
11
80.229946
21
33.962553
0
LINE
8
Layer 1
10
80.229946
20
33.962553
11
85.867606
21
33.400865
0
LINE
8
Layer 1
10
85.867606
20
33.400865
11
91.358588
21
33.327976
0
LINE
8
Layer 1
10
91.358588
20
33.327976
11
96.664694
21
33.675789
0
LINE
8
Layer 1
10
96.664694
20
33.675789
11
101.747726
21
34.376203
0
LINE
8
Layer 1
10
101.747726
20
34.376203
11
106.569486
21
35.361118
0
LINE
8
Layer 1
10
106.569486
20
35.361118
11
111.091777
21
36.562435
0
LINE
8
Layer 1
10
111.091777
20
36.562435
11
115.276402
21
37.912054
0
LINE
8
Layer 1
10
115.276402
20
37.912054
11
119.085162
21
39.341875
0
LINE
8
Layer 1
10
119.085162
20
39.341875
11
122.479860
21
40.783799
0
LINE
8
Layer 1
10
122.479860
20
40.783799
11
127.874277
21
43.431556
0
LINE
8
Layer 1
10
127.874277
20
43.431556
11
131.154074
21
45.310528
0
LINE
8
Layer 1
10
131.154074
20
45.310528
11
131.462676
21
45.238264
0
LINE
8
Layer 1
10
131.462676
20
45.238264
11
131.555182
21
44.931963
0
LINE
8
Layer 1
10
131.555182
20
44.931963
11
125.871412
21
33.868163
0
LINE
8
Layer 1
10
125.871412
20
33.868163
11
125.878787
21
33.611501
0
LINE
8
Layer 1
10
125.878787
20
33.611501
11
126.100276
21
33.483565
0
LINE
8
Layer 1
10
126.100276
20
33.483565
11
138.504676
21
33.480443
0
LINE
8
Layer 1
10
138.504676
20
33.480443
11
138.760428
21
33.326446
0
LINE
8
Layer 1
10
138.760428
20
33.326446
11
138.706024
21
33.046818
0
LINE
8
Layer 1
10
138.706024
20
33.046818
11
136.208790
21
30.761911
0
LINE
8
Layer 1
10
136.208790
20
30.761911
11
131.854170
21
27.013953
0
LINE
8
Layer 1
10
131.854170
20
27.013953
11
125.986237
21
22.347786
0
LINE
8
Layer 1
10
125.986237
20
22.347786
11
118.949062
21
17.308249
0
LINE
8
Layer 1
10
118.949062
20
17.308249
11
115.099533
21
14.818730
0
LINE
8
Layer 1
10
115.099533
20
14.818730
11
111.086721
21
12.440184
0
LINE
8
Layer 1
10
111.086721
20
12.440184
11
106.953635
21
10.240715
0
LINE
8
Layer 1
10
106.953635
20
10.240715
11
102.743285
21
8.288430
0
LINE
8
Layer 1
10
102.743285
20
8.288430
11
98.498680
21
6.651432
0
LINE
8
Layer 1
10
98.498680
20
6.651432
11
94.262828
21
5.397828
0
LINE
8
Layer 1
10
94.262828
20
5.397828
11
90.078740
21
4.595721
0
LINE
8
Layer 1
10
90.078740
20
4.595721
11
85.989424
21
4.313218
0
LINE
8
Layer 1
10
85.989424
20
4.313218
11
77.773200
21
4.553761
0
LINE
8
Layer 1
10
77.773200
20
4.553761
11
70.401769
21
5.222801
0
LINE
8
Layer 1
10
70.401769
20
5.222801
11
63.724062
21
6.241457
0
LINE
8
Layer 1
10
63.724062
20
6.241457
11
57.589011
21
7.530847
0
LINE
8
Layer 1
10
57.589011
20
7.530847
11
51.845550
21
9.012088
0
LINE
8
Layer 1
10
51.845550
20
9.012088
11
46.342610
21
10.606298
0
LINE
8
Layer 1
10
46.342610
20
10.606298
11
35.454024
21
13.818098
0
LINE
8
Layer 1
10
35.454024
20
13.818098
11
25.782599
21
16.336111
0
LINE
8
Layer 1
10
25.782599
20
16.336111
11
21.733615
21
17.213934
0
LINE
8
Layer 1
10
21.733615
20
17.213934
11
18.061099
21
17.835197
0
LINE
8
Layer 1
10
18.061099
20
17.835197
11
14.654035
21
18.198069
0
LINE
8
Layer 1
10
14.654035
20
18.198069
11
11.401411
21
18.300721
0
LINE
8
Layer 1
10
11.401411
20
18.300721
11
8.192212
21
18.141324
0
LINE
8
Layer 1
10
8.192212
20
18.141324
11
4.915424
21
17.718048
0
LINE
8
Layer 1
10
4.915424
20
17.718048
11
4.672156
21
17.802913
0
LINE
8
Layer 1
10
4.672156
20
17.802913
11
4.613376
21
18.052481
0
LINE
8
Layer 1
10
4.613376
20
18.052481
11
8.069706
21
30.189181
0
LINE
8
Layer 1
10
8.069706
20
30.189181
11
14.788100
21
45.570800
0
LINE
8
Layer 1
10
22.140600
20
39.922100
11
21.318242
21
35.923440
0
LINE
8
Layer 1
10
21.318242
20
35.923440
11
19.695670
21
30.105940
0
LINE
8
Layer 1
10
19.695670
20
30.105940
11
18.941854
21
27.837694
0
LINE
8
Layer 1
10
18.941854
20
27.837694
11
18.799915
21
26.261826
0
LINE
8
Layer 1
10
18.799915
20
26.261826
11
18.916075
21
25.710058
0
LINE
8
Layer 1
10
18.916075
20
25.710058
11
19.134414
21
25.303214
0
LINE
8
Layer 1
10
19.134414
20
25.303214
11
19.809911
21
24.886736
0
LINE
8
Layer 1
10
19.809911
20
24.886736
11
20.690969
21
24.937271
0
LINE
8
Layer 1
10
20.690969
20
24.937271
11
21.642149
21
25.379695
0
LINE
8
Layer 1
10
21.642149
20
25.379695
11
22.528012
21
26.138889
0
LINE
8
Layer 1
10
22.528012
20
26.138889
11
23.213120
21
27.139730
0
LINE
8
Layer 1
10
23.213120
20
27.139730
11
24.943120
21
30.506810
0
LINE
8
Layer 1
10
24.943120
20
30.506810
11
29.458970
21
28.775510
0
LINE
8
Layer 1
10
29.458970
20
28.775510
11
28.723694
21
25.017660
0
LINE
8
Layer 1
10
28.723694
20
25.017660
11
28.435355
21
23.590102
0
LINE
8
Layer 1
10
28.435355
20
23.590102
11
28.567587
21
22.600030
0
LINE
8
Layer 1
10
28.567587
20
22.600030
11
29.020240
21
22.021513
0
LINE
8
Layer 1
10
29.020240
20
22.021513
11
29.693160
21
21.828616
0
LINE
8
Layer 1
10
29.693160
20
21.828616
11
30.486198
21
21.995406
0
LINE
8
Layer 1
10
30.486198
20
21.995406
11
31.299200
21
22.495950
0
LINE
8
Layer 1
10
31.299200
20
22.495950
11
32.032016
21
23.304315
0
LINE
8
Layer 1
10
32.032016
20
23.304315
11
32.584494
21
24.394567
0
LINE
8
Layer 1
10
32.584494
20
24.394567
11
34.297966
21
29.824437
0
LINE
8
Layer 1
10
34.297966
20
29.824437
11
35.363446
21
33.513142
0
LINE
8
Layer 1
10
35.363446
20
33.513142
11
36.120384
21
36.773267
0
LINE
8
Layer 1
10
36.120384
20
36.773267
11
36.297913
21
37.640658
0
LINE
8
Layer 1
10
36.297913
20
37.640658
11
36.139248
21
38.420934
0
LINE
8
Layer 1
10
36.139248
20
38.420934
11
35.717177
21
39.046309
0
LINE
8
Layer 1
10
35.717177
20
39.046309
11
35.104486
21
39.448995
0
LINE
8
Layer 1
10
35.104486
20
39.448995
11
34.373960
21
39.561205
0
LINE
8
Layer 1
10
34.373960
20
39.561205
11
33.598385
21
39.315153
0
LINE
8
Layer 1
10
33.598385
20
39.315153
11
32.850548
21
38.643050
0
LINE
8
Layer 1
10
32.850548
20
38.643050
11
32.203234
21
37.477111
0
LINE
8
Layer 1
10
32.203234
20
37.477111
11
30.825880
21
34.701088
0
LINE
8
Layer 1
10
30.825880
20
34.701088
11
30.060904
21
32.981921
0
LINE
8
Layer 1
10
30.060904
20
32.981921
11
28.191608
21
33.689220
0
LINE
8
Layer 1
10
28.191608
20
33.689220
11
26.289034
21
34.508621
0
LINE
8
Layer 1
10
26.289034
20
34.508621
11
26.392529
21
35.444704
0
LINE
8
Layer 1
10
26.392529
20
35.444704
11
26.620265
21
36.782981
0
LINE
8
Layer 1
10
26.620265
20
36.782981
11
26.381982
21
38.846546
0
LINE
8
Layer 1
10
26.381982
20
38.846546
11
25.891007
21
40.322295
0
LINE
8
Layer 1
10
25.891007
20
40.322295
11
25.227733
21
41.265398
0
LINE
8
Layer 1
10
25.227733
20
41.265398
11
24.472552
21
41.731021
0
LINE
8
Layer 1
10
24.472552
20
41.731021
11
23.705857
21
41.774332
0
LINE
8
Layer 1
10
23.705857
20
41.774332
11
23.008041
21
41.450499
0
LINE
8
Layer 1
10
23.008041
20
41.450499
11
22.459496
21
40.814690
0
LINE
8
Layer 1
10
22.459496
20
40.814690
11
22.140615
21
39.922071
0
LINE
8
Layer 1
10
22.140615
20
39.922071
11
22.140600
21
39.922100
0
LINE
8
Layer 1
10
42.037700
20
34.987900
11
42.923711
21
36.369045
0
LINE
8
Layer 1
10
42.923711
20
36.369045
11
43.825919
21
37.168838
0
LINE
8
Layer 1
10
43.825919
20
37.168838
11
44.696625
21
37.520058
0
LINE
8
Layer 1
10
44.696625
20
37.520058
11
45.488130
21
37.555490
0
LINE
8
Layer 1
10
45.488130
20
37.555490
11
45.829707
21
37.387774
0
LINE
8
Layer 1
10
45.829707
20
37.387774
11
46.201445
21
36.990920
0
LINE
8
Layer 1
10
46.201445
20
36.990920
11
46.927460
21
35.832290
0
LINE
8
Layer 1
10
46.927460
20
35.832290
11
47.291365
21
33.602512
0
LINE
8
Layer 1
10
47.291365
20
33.602512
11
47.350049
21
31.107273
0
LINE
8
Layer 1
10
47.350049
20
31.107273
11
47.175593
21
28.509658
0
LINE
8
Layer 1
10
47.175593
20
28.509658
11
46.840080
21
25.972755
0
LINE
8
Layer 1
10
46.840080
20
25.972755
11
45.974214
21
21.733430
0
LINE
8
Layer 1
10
45.974214
20
21.733430
11
45.329110
21
19.693990
0
LINE
8
Layer 1
10
45.329110
20
19.693990
11
44.693693
21
18.881759
0
LINE
8
Layer 1
10
44.693693
20
18.881759
11
44.005560
21
18.343760
0
LINE
8
Layer 1
10
44.005560
20
18.343760
11
43.323218
21
18.071127
0
LINE
8
Layer 1
10
43.323218
20
18.071127
11
42.705176
21
18.054997
0
LINE
8
Layer 1
10
42.705176
20
18.054997
11
42.209942
21
18.286503
0
LINE
8
Layer 1
10
42.209942
20
18.286503
11
41.896022
21
18.756783
0
LINE
8
Layer 1
10
41.896022
20
18.756783
11
41.821926
21
19.456971
0
LINE
8
Layer 1
10
41.821926
20
19.456971
11
42.046160
21
20.378202
0
LINE
8
Layer 1
10
42.046160
20
20.378202
11
43.059780
21
23.559842
0
LINE
8
Layer 1
10
43.059780
20
23.559842
11
39.488970
21
23.958569
0
LINE
8
Layer 1
10
39.488970
20
23.958569
11
38.457242
21
22.261990
0
LINE
8
Layer 1
10
38.457242
20
22.261990
11
37.495338
21
21.200630
0
LINE
8
Layer 1
10
37.495338
20
21.200630
11
36.646544
21
20.684716
0
LINE
8
Layer 1
10
36.646544
20
20.684716
11
35.954143
21
20.624472
0
LINE
8
Layer 1
10
35.954143
20
20.624472
11
35.461418
21
20.930124
0
LINE
8
Layer 1
10
35.461418
20
20.930124
11
35.211655
21
21.511898
0
LINE
8
Layer 1
10
35.211655
20
21.511898
11
35.248138
21
22.280019
0
LINE
8
Layer 1
10
35.248138
20
22.280019
11
35.614150
21
23.144712
0
LINE
8
Layer 1
10
35.614150
20
23.144712
11
42.037700
21
34.987912
0
LINE
8
Layer 1
10
42.037700
20
34.987912
11
42.037700
21
34.987900
0
LINE
8
Layer 1
10
40.857400
20
27.981740
11
44.377410
21
27.380951
0
LINE
8
Layer 1
10
44.377410
20
27.380951
11
44.728809
21
30.398340
0
LINE
8
Layer 1
10
44.728809
20
30.398340
11
44.738504
21
32.334865
0
LINE
8
Layer 1
10
44.738504
20
32.334865
11
44.576563
21
32.874815
0
LINE
8
Layer 1
10
44.576563
20
32.874815
11
44.438235
21
32.970803
0
LINE
8
Layer 1
10
44.438235
20
32.970803
11
44.255702
21
32.925311
0
LINE
8
Layer 1
10
44.255702
20
32.925311
11
40.857400
21
27.981740
0
LINE
8
Layer 1
10
60.215400
20
29.496100
11
60.320963
21
30.056010
0
LINE
8
Layer 1
10
60.320963
20
30.056010
11
60.280541
21
30.711159
0
LINE
8
Layer 1
10
60.280541
20
30.711159
11
60.082641
21
31.401554
0
LINE
8
Layer 1
10
60.082641
20
31.401554
11
59.715769
21
32.067200
0
LINE
8
Layer 1
10
59.715769
20
32.067200
11
59.168430
21
32.648104
0
LINE
8
Layer 1
10
59.168430
20
32.648104
11
58.429132
21
33.084271
0
LINE
8
Layer 1
10
58.429132
20
33.084271
11
57.486380
21
33.315707
0
LINE
8
Layer 1
10
57.486380
20
33.315707
11
56.328680
21
33.282420
0
LINE
8
Layer 1
10
56.328680
20
33.282420
11
55.446866
21
33.179756
0
LINE
8
Layer 1
10
55.446866
20
33.179756
11
54.637973
21
32.901750
0
LINE
8
Layer 1
10
54.637973
20
32.901750
11
53.230103
21
31.920142
0
LINE
8
Layer 1
10
53.230103
20
31.920142
11
52.087378
21
30.538460
0
LINE
8
Layer 1
10
52.087378
20
30.538460
11
51.192100
21
28.957569
0
LINE
8
Layer 1
10
51.192100
20
28.957569
11
50.526576
21
27.378334
0
LINE
8
Layer 1
10
50.526576
20
27.378334
11
50.073109
21
26.001619
0
LINE
8
Layer 1
10
50.073109
20
26.001619
11
49.731570
21
24.659210
0
LINE
8
Layer 1
10
49.731570
20
24.659210
11
49.484946
21
22.225246
0
LINE
8
Layer 1
10
49.484946
20
22.225246
11
49.586575
21
19.953941
0
LINE
8
Layer 1
10
49.586575
20
19.953941
11
49.813181
21
18.779626
0
LINE
8
Layer 1
10
49.813181
20
18.779626
11
50.202528
21
17.665220
0
LINE
8
Layer 1
10
50.202528
20
17.665220
11
50.711049
21
16.762560
0
LINE
8
Layer 1
10
50.711049
20
16.762560
11
51.329453
21
16.082676
0
LINE
8
Layer 1
10
51.329453
20
16.082676
11
52.011457
21
15.592933
0
LINE
8
Layer 1
10
52.011457
20
15.592933
11
52.710774
21
15.260693
0
LINE
8
Layer 1
10
52.710774
20
15.260693
11
53.976207
21
14.938175
0
LINE
8
Layer 1
10
53.976207
20
14.938175
11
54.755468
21
14.854030
0
LINE
8
Layer 1
10
54.755468
20
14.854030
11
55.768935
21
15.265553
0
LINE
8
Layer 1
10
55.768935
20
15.265553
11
56.434592
21
15.749242
0
LINE
8
Layer 1
10
56.434592
20
15.749242
11
56.809514
21
16.267006
0
LINE
8
Layer 1
10
56.809514
20
16.267006
11
56.950777
21
16.780756
0
LINE
8
Layer 1
10
56.950777
20
16.780756
11
56.760624
21
17.643846
0
LINE
8
Layer 1
10
56.760624
20
17.643846
11
56.320738
21
18.033790
0
LINE
8
Layer 1
10
56.320738
20
18.033790
11
55.136960
21
18.085847
0
LINE
8
Layer 1
10
55.136960
20
18.085847
11
54.505967
21
18.236047
0
LINE
8
Layer 1
10
54.505967
20
18.236047
11
53.902978
21
18.580418
0
LINE
8
Layer 1
10
53.902978
20
18.580418
11
53.484074
21
19.043676
0
LINE
8
Layer 1
10
53.484074
20
19.043676
11
53.191496
21
19.624835
0
LINE
8
Layer 1
10
53.191496
20
19.624835
11
52.915854
21
21.007586
0
LINE
8
Layer 1
10
52.915854
20
21.007586
11
52.937123
21
22.462138
0
LINE
8
Layer 1
10
52.937123
20
22.462138
11
53.116373
21
23.721958
0
LINE
8
Layer 1
10
53.116373
20
23.721958
11
53.766379
21
25.842445
0
LINE
8
Layer 1
10
53.766379
20
25.842445
11
54.722722
21
28.072555
0
LINE
8
Layer 1
10
54.722722
20
28.072555
11
55.317863
21
28.984860
0
LINE
8
Layer 1
10
55.317863
20
28.984860
11
55.992100
21
29.631937
0
LINE
8
Layer 1
10
55.992100
20
29.631937
11
56.746271
21
29.916245
0
LINE
8
Layer 1
10
56.746271
20
29.916245
11
57.581213
21
29.740238
0
LINE
8
Layer 1
10
57.581213
20
29.740238
11
58.548825
21
28.844885
0
LINE
8
Layer 1
10
58.548825
20
28.844885
11
59.330106
21
28.675229
0
LINE
8
Layer 1
10
59.330106
20
28.675229
11
59.895487
21
28.977045
0
LINE
8
Layer 1
10
59.895487
20
28.977045
11
60.215403
21
29.496107
0
LINE
8
Layer 1
10
60.215403
20
29.496107
11
60.215400
21
29.496100
0
LINE
8
Layer 1
10
63.438800
20
29.716800
11
63.075767
21
27.683873
0
LINE
8
Layer 1
10
63.075767
20
27.683873
11
62.955671
21
25.401717
0
LINE
8
Layer 1
10
62.955671
20
25.401717
11
62.593084
21
22.673653
0
LINE
8
Layer 1
10
62.593084
20
22.673653
11
62.169161
21
21.080943
0
LINE
8
Layer 1
10
62.169161
20
21.080943
11
61.502580
21
19.303000
0
LINE
8
Layer 1
10
61.502580
20
19.303000
11
59.579330
21
15.516550
0
LINE
8
Layer 1
10
59.579330
20
15.516550
11
59.294659
21
14.720468
0
LINE
8
Layer 1
10
59.294659
20
14.720468
11
59.309653
21
14.062496
0
LINE
8
Layer 1
10
59.309653
20
14.062496
11
59.584798
21
13.593678
0
LINE
8
Layer 1
10
59.584798
20
13.593678
11
60.080581
21
13.365060
0
LINE
8
Layer 1
10
60.080581
20
13.365060
11
60.757488
21
13.427686
0
LINE
8
Layer 1
10
60.757488
20
13.427686
11
61.576004
21
13.832600
0
LINE
8
Layer 1
10
61.576004
20
13.832600
11
62.496616
21
14.630847
0
LINE
8
Layer 1
10
62.496616
20
14.630847
11
63.479810
21
15.873472
0
LINE
8
Layer 1
10
63.479810
20
15.873472
11
64.402114
21
17.821396
0
LINE
8
Layer 1
10
64.402114
20
17.821396
11
64.839240
21
19.091062
0
LINE
8
Layer 1
10
64.839240
20
19.091062
11
66.001020
21
19.221501
0
LINE
8
Layer 1
10
66.001020
20
19.221501
11
66.537694
21
16.749103
0
LINE
8
Layer 1
10
66.537694
20
16.749103
11
67.249590
21
12.841611
0
LINE
8
Layer 1
10
67.249590
20
12.841611
11
67.472666
21
12.194059
0
LINE
8
Layer 1
10
67.472666
20
12.194059
11
67.905789
21
11.666592
0
LINE
8
Layer 1
10
67.905789
20
11.666592
11
68.475783
21
11.304657
0
LINE
8
Layer 1
10
68.475783
20
11.304657
11
69.109476
21
11.153705
0
LINE
8
Layer 1
10
69.109476
20
11.153705
11
69.733694
21
11.259183
0
LINE
8
Layer 1
10
69.733694
20
11.259183
11
70.275263
21
11.666540
0
LINE
8
Layer 1
10
70.275263
20
11.666540
11
70.661009
21
12.421225
0
LINE
8
Layer 1
10
70.661009
20
12.421225
11
70.817760
21
13.568685
0
LINE
8
Layer 1
10
70.817760
20
13.568685
11
70.397436
21
15.761949
0
LINE
8
Layer 1
10
70.397436
20
15.761949
11
69.453830
21
18.623545
0
LINE
8
Layer 1
10
69.453830
20
18.623545
11
69.123465
21
19.430092
0
LINE
8
Layer 1
10
69.123465
20
19.430092
11
68.787788
21
20.027402
0
LINE
8
Layer 1
10
68.787788
20
20.027402
11
68.407140
21
20.388845
0
LINE
8
Layer 1
10
68.407140
20
20.388845
11
70.275460
21
22.379715
0
LINE
8
Layer 1
10
70.275460
20
22.379715
11
71.633319
21
24.045573
0
LINE
8
Layer 1
10
71.633319
20
24.045573
11
72.404720
21
25.427065
0
LINE
8
Layer 1
10
72.404720
20
25.427065
11
72.466910
21
26.402624
0
LINE
8
Layer 1
10
72.466910
20
26.402624
11
72.319316
21
26.739771
0
LINE
8
Layer 1
10
72.319316
20
26.739771
11
72.034470
21
26.929881
0
LINE
8
Layer 1
10
72.034470
20
26.929881
11
71.598774
21
26.937995
0
LINE
8
Layer 1
10
71.598774
20
26.937995
11
70.998632
21
26.729152
0
LINE
8
Layer 1
10
70.998632
20
26.729152
11
69.250630
21
25.520754
0
LINE
8
Layer 1
10
69.250630
20
25.520754
11
66.588031
21
23.028775
0
LINE
8
Layer 1
10
66.588031
20
23.028775
11
66.065580
21
22.342474
0
LINE
8
Layer 1
10
66.065580
20
22.342474
11
66.396441
21
24.147374
0
LINE
8
Layer 1
10
66.396441
20
24.147374
11
66.609620
21
25.873179
0
LINE
8
Layer 1
10
66.609620
20
25.873179
11
66.676502
21
27.676494
0
LINE
8
Layer 1
10
66.676502
20
27.676494
11
66.639141
21
28.551113
0
LINE
8
Layer 1
10
66.639141
20
28.551113
11
66.380049
21
29.325376
0
LINE
8
Layer 1
10
66.380049
20
29.325376
11
65.957611
21
29.960950
0
LINE
8
Layer 1
10
65.957611
20
29.960950
11
65.430216
21
30.419503
0
LINE
8
Layer 1
10
65.430216
20
30.419503
11
64.856250
21
30.662699
0
LINE
8
Layer 1
10
64.856250
20
30.662699
11
64.294101
21
30.652207
0
LINE
8
Layer 1
10
64.294101
20
30.652207
11
63.802156
21
30.349693
0
LINE
8
Layer 1
10
63.802156
20
30.349693
11
63.438802
21
29.716824
0
LINE
8
Layer 1
10
63.438802
20
29.716824
11
63.438800
21
29.716800
0
LINE
8
Layer 1
10
81.819600
20
25.143700
11
80.992649
21
24.032012
0
LINE
8
Layer 1
10
80.992649
20
24.032012
11
80.373685
21
22.511219
0
LINE
8
Layer 1
10
80.373685
20
22.511219
11
80.000436
21
20.571564
0
LINE
8
Layer 1
10
80.000436
20
20.571564
11
79.910630
21
18.203290
0
LINE
8
Layer 1
10
79.910630
20
18.203290
11
80.065692
21
16.378679
0
LINE
8
Layer 1
10
80.065692
20
16.378679
11
80.399344
21
14.775238
0
LINE
8
Layer 1
10
80.399344
20
14.775238
11
80.906275
21
13.408855
0
LINE
8
Layer 1
10
80.906275
20
13.408855
11
81.581174
21
12.295417
0
LINE
8
Layer 1
10
81.581174
20
12.295417
11
82.418729
21
11.450812
0
LINE
8
Layer 1
10
82.418729
20
11.450812
11
83.413629
21
10.890928
0
LINE
8
Layer 1
10
83.413629
20
10.890928
11
84.560563
21
10.631651
0
LINE
8
Layer 1
10
84.560563
20
10.631651
11
85.854220
21
10.688870
0
LINE
8
Layer 1
10
85.854220
20
10.688870
11
87.018432
21
10.996313
0
LINE
8
Layer 1
10
87.018432
20
10.996313
11
87.819789
21
11.441158
0
LINE
8
Layer 1
10
87.819789
20
11.441158
11
88.317116
21
11.969762
0
LINE
8
Layer 1
10
88.317116
20
11.969762
11
88.569236
21
12.528482
0
LINE
8
Layer 1
10
88.569236
20
12.528482
11
88.573155
21
13.521698
0
LINE
8
Layer 1
10
88.573155
20
13.521698
11
88.302140
21
13.991660
0
LINE
8
Layer 1
10
88.302140
20
13.991660
11
87.847058
21
14.136751
0
LINE
8
Layer 1
10
87.847058
20
14.136751
11
86.473610
21
13.808569
0
LINE
8
Layer 1
10
86.473610
20
13.808569
11
85.419927
21
13.622228
0
LINE
8
Layer 1
10
85.419927
20
13.622228
11
84.487219
21
13.930740
0
LINE
8
Layer 1
10
84.487219
20
13.930740
11
83.658046
21
14.772752
0
LINE
8
Layer 1
10
83.658046
20
14.772752
11
82.914970
21
16.186909
0
LINE
8
Layer 1
10
82.914970
20
16.186909
11
82.520390
21
17.575898
0
LINE
8
Layer 1
10
82.520390
20
17.575898
11
82.342776
21
19.250417
0
LINE
8
Layer 1
10
82.342776
20
19.250417
11
82.492336
21
20.949591
0
LINE
8
Layer 1
10
82.492336
20
20.949591
11
82.724245
21
21.726902
0
LINE
8
Layer 1
10
82.724245
20
21.726902
11
83.079276
21
22.412549
0
LINE
8
Layer 1
10
83.079276
20
22.412549
11
83.553078
21
22.927927
0
LINE
8
Layer 1
10
83.553078
20
22.927927
11
83.901071
21
23.147772
0
LINE
8
Layer 1
10
83.901071
20
23.147772
11
84.398309
21
23.320812
0
LINE
8
Layer 1
10
84.398309
20
23.320812
11
84.846857
21
23.294678
0
LINE
8
Layer 1
10
84.846857
20
23.294678
11
85.377711
21
23.057152
0
LINE
8
Layer 1
10
85.377711
20
23.057152
11
86.012802
21
22.675391
0
LINE
8
Layer 1
10
86.012802
20
22.675391
11
86.511665
21
22.527002
0
LINE
8
Layer 1
10
86.511665
20
22.527002
11
86.879832
21
22.576399
0
LINE
8
Layer 1
10
86.879832
20
22.576399
11
87.122835
21
22.787992
0
LINE
8
Layer 1
10
87.122835
20
22.787992
11
87.255472
21
23.555415
0
LINE
8
Layer 1
10
87.255472
20
23.555415
11
86.953831
21
24.544562
0
LINE
8
Layer 1
10
86.953831
20
24.544562
11
85.879775
21
25.661714
0
LINE
8
Layer 1
10
85.879775
20
25.661714
11
85.285938
21
25.994542
0
LINE
8
Layer 1
10
85.285938
20
25.994542
11
84.656592
21
26.168288
0
LINE
8
Layer 1
10
84.656592
20
26.168288
11
83.993512
21
26.176515
0
LINE
8
Layer 1
10
83.993512
20
26.176515
11
83.298471
21
26.012786
0
LINE
8
Layer 1
10
83.298471
20
26.012786
11
81.819601
21
25.143710
0
LINE
8
Layer 1
10
81.819601
20
25.143710
11
81.819600
21
25.143700
0
LINE
8
Layer 1
10
89.958200
20
25.066000
11
90.040398
21
25.766983
0
LINE
8
Layer 1
10
90.040398
20
25.766983
11
90.274174
21
26.362414
0
LINE
8
Layer 1
10
90.274174
20
26.362414
11
90.620359
21
26.788699
0
LINE
8
Layer 1
10
90.620359
20
26.788699
11
91.039782
21
26.982246
0
LINE
8
Layer 1
10
91.039782
20
26.982246
11
91.493275
21
26.879463
0
LINE
8
Layer 1
10
91.493275
20
26.879463
11
91.941667
21
26.416758
0
LINE
8
Layer 1
10
91.941667
20
26.416758
11
92.345788
21
25.530538
0
LINE
8
Layer 1
10
92.345788
20
25.530538
11
92.666470
21
24.157210
0
LINE
8
Layer 1
10
92.666470
20
24.157210
11
93.144530
21
21.664731
0
LINE
8
Layer 1
10
93.144530
20
21.664731
11
93.373899
21
18.895383
0
LINE
8
Layer 1
10
93.373899
20
18.895383
11
93.517841
21
16.560513
0
LINE
8
Layer 1
10
93.517841
20
16.560513
11
93.739620
21
15.371470
0
LINE
8
Layer 1
10
93.739620
20
15.371470
11
94.484492
21
15.193982
0
LINE
8
Layer 1
10
94.484492
20
15.193982
11
95.777076
21
15.317596
0
LINE
8
Layer 1
10
95.777076
20
15.317596
11
98.134610
21
15.856451
0
LINE
8
Layer 1
10
98.134610
20
15.856451
11
98.862408
21
15.949481
0
LINE
8
Layer 1
10
98.862408
20
15.949481
11
99.611614
21
15.812696
0
LINE
8
Layer 1
10
99.611614
20
15.812696
11
100.135939
21
15.463433
0
LINE
8
Layer 1
10
100.135939
20
15.463433
11
100.236808
21
15.214542
0
LINE
8
Layer 1
10
100.236808
20
15.214542
11
100.189100
21
14.919033
0
LINE
8
Layer 1
10
100.189100
20
14.919033
11
99.895297
21
14.404250
0
LINE
8
Layer 1
10
99.895297
20
14.404250
11
99.514677
21
14.107920
0
LINE
8
Layer 1
10
99.514677
20
14.107920
11
98.928360
21
13.869693
0
LINE
8
Layer 1
10
98.928360
20
13.869693
11
97.722341
21
13.505445
0
LINE
8
Layer 1
10
97.722341
20
13.505445
11
95.213483
21
12.907536
0
LINE
8
Layer 1
10
95.213483
20
12.907536
11
92.686963
21
12.590218
0
LINE
8
Layer 1
10
92.686963
20
12.590218
11
91.818699
21
12.697484
0
LINE
8
Layer 1
10
91.818699
20
12.697484
11
91.553598
21
12.845722
0
LINE
8
Layer 1
10
91.553598
20
12.845722
11
91.427960
21
13.067742
0
LINE
8
Layer 1
10
91.427960
20
13.067742
11
90.884242
21
17.481512
0
LINE
8
Layer 1
10
90.884242
20
17.481512
11
90.328750
21
21.432264
0
LINE
8
Layer 1
10
90.328750
20
21.432264
11
89.958201
21
25.065992
0
LINE
8
Layer 1
10
89.958201
20
25.065992
11
89.958200
21
25.066000
0
LINE
8
Layer 1
10
98.436300
20
26.814600
11
98.585856
21
27.742191
0
LINE
8
Layer 1
10
98.585856
20
27.742191
11
99.128119
21
28.292211
0
LINE
8
Layer 1
10
99.128119
20
28.292211
11
99.482489
21
28.372022
0
LINE
8
Layer 1
10
99.482489
20
28.372022
11
99.858203
21
28.293111
0
LINE
8
Layer 1
10
99.858203
20
28.293111
11
100.229650
21
28.034033
0
LINE
8
Layer 1
10
100.229650
20
28.034033
11
100.571220
21
27.573345
0
LINE
8
Layer 1
10
100.571220
20
27.573345
11
101.077073
21
26.062536
0
LINE
8
Layer 1
10
101.077073
20
26.062536
11
101.640696
21
23.723866
0
LINE
8
Layer 1
10
101.640696
20
23.723866
11
102.280769
21
21.203121
0
LINE
8
Layer 1
10
102.280769
20
21.203121
11
103.015970
21
19.146085
0
LINE
8
Layer 1
10
103.015970
20
19.146085
11
103.543495
21
18.631591
0
LINE
8
Layer 1
10
103.543495
20
18.631591
11
104.183609
21
18.406939
0
LINE
8
Layer 1
10
104.183609
20
18.406939
11
104.820398
21
18.494776
0
LINE
8
Layer 1
10
104.820398
20
18.494776
11
105.337950
21
18.917750
0
LINE
8
Layer 1
10
105.337950
20
18.917750
11
105.638802
21
20.123186
0
LINE
8
Layer 1
10
105.638802
20
20.123186
11
105.626445
21
21.780832
0
LINE
8
Layer 1
10
105.626445
20
21.780832
11
105.113848
21
25.552090
0
LINE
8
Layer 1
10
105.113848
20
25.552090
11
104.696700
21
27.088154
0
LINE
8
Layer 1
10
104.696700
20
27.088154
11
104.508747
21
28.240840
0
LINE
8
Layer 1
10
104.508747
20
28.240840
11
104.668840
21
28.932715
0
LINE
8
Layer 1
10
104.668840
20
28.932715
11
104.940476
21
29.383653
0
LINE
8
Layer 1
10
104.940476
20
29.383653
11
105.295251
21
29.605106
0
LINE
8
Layer 1
10
105.295251
20
29.605106
11
105.704761
21
29.608525
0
LINE
8
Layer 1
10
105.704761
20
29.608525
11
106.140601
21
29.405363
0
LINE
8
Layer 1
10
106.140601
20
29.405363
11
106.574367
21
29.007070
0
LINE
8
Layer 1
10
106.574367
20
29.007070
11
107.322057
21
27.670902
0
LINE
8
Layer 1
10
107.322057
20
27.670902
11
108.225507
21
23.309693
0
LINE
8
Layer 1
10
108.225507
20
23.309693
11
108.437632
21
21.233600
0
LINE
8
Layer 1
10
108.437632
20
21.233600
11
108.353667
21
19.741932
0
LINE
8
Layer 1
10
108.353667
20
19.741932
11
108.075169
21
18.681188
0
LINE
8
Layer 1
10
108.075169
20
18.681188
11
107.659997
21
17.641504
0
LINE
8
Layer 1
10
107.659997
20
17.641504
11
106.977827
21
16.777984
0
LINE
8
Layer 1
10
106.977827
20
16.777984
11
106.495893
21
16.460756
0
LINE
8
Layer 1
10
106.495893
20
16.460756
11
105.898337
21
16.245732
0
LINE
8
Layer 1
10
105.898337
20
16.245732
11
105.017230
21
16.166808
0
LINE
8
Layer 1
10
105.017230
20
16.166808
11
103.424254
21
16.404317
0
LINE
8
Layer 1
10
103.424254
20
16.404317
11
102.531510
21
16.793175
0
LINE
8
Layer 1
10
102.531510
20
16.793175
11
101.665632
21
17.442869
0
LINE
8
Layer 1
10
101.665632
20
17.442869
11
100.894899
21
18.413976
0
LINE
8
Layer 1
10
100.894899
20
18.413976
11
100.287587
21
19.767072
0
LINE
8
Layer 1
10
100.287587
20
19.767072
11
98.935499
21
24.402001
0
LINE
8
Layer 1
10
98.935499
20
24.402001
11
98.436297
21
26.814612
0
LINE
8
Layer 1
10
98.436297
20
26.814612
11
98.436300
21
26.814600
0
LINE
8
Layer 1
10
110.391000
20
31.476800
11
112.042701
21
32.364361
0
LINE
8
Layer 1
10
112.042701
20
32.364361
11
113.493634
21
32.897970
0
LINE
8
Layer 1
10
113.493634
20
32.897970
11
114.762600
21
33.072809
0
LINE
8
Layer 1
10
114.762600
20
33.072809
11
115.868400
21
32.884060
0
LINE
8
Layer 1
10
115.868400
20
32.884060
11
116.411291
21
32.367887
0
LINE
8
Layer 1
10
116.411291
20
32.367887
11
116.805155
21
31.626446
0
LINE
8
Layer 1
10
116.805155
20
31.626446
11
117.007526
21
30.758426
0
LINE
8
Layer 1
10
117.007526
20
30.758426
11
116.975940
21
29.862520
0
LINE
8
Layer 1
10
116.975940
20
29.862520
11
116.547415
21
28.558277
0
LINE
8
Layer 1
10
116.547415
20
28.558277
11
116.306810
21
28.016470
0
LINE
8
Layer 1
10
116.306810
20
28.016470
11
117.274035
21
27.690167
0
LINE
8
Layer 1
10
117.274035
20
27.690167
11
118.065891
21
26.972725
0
LINE
8
Layer 1
10
118.065891
20
26.972725
11
118.646609
21
25.940948
0
LINE
8
Layer 1
10
118.646609
20
25.940948
11
118.980420
21
24.671640
0
LINE
8
Layer 1
10
118.980420
20
24.671640
11
118.988004
21
23.996469
0
LINE
8
Layer 1
10
118.988004
20
23.996469
11
118.816263
21
23.337698
0
LINE
8
Layer 1
10
118.816263
20
23.337698
11
118.471112
21
22.701709
0
LINE
8
Layer 1
10
118.471112
20
22.701709
11
117.958469
21
22.094885
0
LINE
8
Layer 1
10
117.958469
20
22.094885
11
116.454365
21
20.994257
0
LINE
8
Layer 1
10
116.454365
20
20.994257
11
114.351280
21
20.086870
0
LINE
8
Layer 1
10
114.351280
20
20.086870
11
112.837369
21
19.871202
0
LINE
8
Layer 1
10
112.837369
20
19.871202
11
112.313563
21
19.950209
0
LINE
8
Layer 1
10
112.313563
20
19.950209
11
112.089620
21
20.161747
0
LINE
8
Layer 1
10
112.089620
20
20.161747
11
110.708796
21
25.144923
0
LINE
8
Layer 1
10
110.708796
20
25.144923
11
109.353570
21
29.581007
0
LINE
8
Layer 1
10
109.353570
20
29.581007
11
109.282232
21
29.987702
0
LINE
8
Layer 1
10
109.282232
20
29.987702
11
109.313089
21
30.428977
0
LINE
8
Layer 1
10
109.313089
20
30.428977
11
109.623544
21
30.920215
0
LINE
8
Layer 1
10
109.623544
20
30.920215
11
110.391000
21
31.476797
0
LINE
8
Layer 1
10
110.391000
20
31.476797
11
110.391000
21
31.476800
0
LINE
8
Layer 1
10
111.363343
20
29.930760
11
112.537823
21
27.180210
0
LINE
8
Layer 1
10
112.537823
20
27.180210
11
113.919541
21
27.943236
0
LINE
8
Layer 1
10
113.919541
20
27.943236
11
114.798592
21
28.789971
0
LINE
8
Layer 1
10
114.798592
20
28.789971
11
115.037805
21
29.298422
0
LINE
8
Layer 1
10
115.037805
20
29.298422
11
115.049243
21
29.851700
0
LINE
8
Layer 1
10
115.049243
20
29.851700
11
114.858373
21
30.315577
0
LINE
8
Layer 1
10
114.858373
20
30.315577
11
114.550785
21
30.583908
0
LINE
8
Layer 1
10
114.550785
20
30.583908
11
113.664678
21
30.665601
0
LINE
8
Layer 1
10
113.664678
20
30.665601
11
112.549377
21
30.360107
0
LINE
8
Layer 1
10
112.549377
20
30.360107
11
111.363333
21
29.930757
0
LINE
8
Layer 1
10
111.363333
20
29.930757
11
111.363343
21
29.930760
0
LINE
8
Layer 1
10
112.941053
20
25.059470
11
113.339846
21
23.390237
0
LINE
8
Layer 1
10
113.339846
20
23.390237
11
113.713635
21
21.835500
0
LINE
8
Layer 1
10
113.713635
20
21.835500
11
114.341131
21
22.126604
0
LINE
8
Layer 1
10
114.341131
20
22.126604
11
115.671716
21
22.715143
0
LINE
8
Layer 1
10
115.671716
20
22.715143
11
116.329869
21
23.142431
0
LINE
8
Layer 1
10
116.329869
20
23.142431
11
116.838837
21
23.669853
0
LINE
8
Layer 1
10
116.838837
20
23.669853
11
117.090302
21
24.306002
0
LINE
8
Layer 1
10
117.090302
20
24.306002
11
116.975945
21
25.059470
0
LINE
8
Layer 1
10
116.975945
20
25.059470
11
116.547179
21
25.683373
0
LINE
8
Layer 1
10
116.547179
20
25.683373
11
115.970224
21
25.976225
0
LINE
8
Layer 1
10
115.970224
20
25.976225
11
115.308375
21
26.014424
0
LINE
8
Layer 1
10
115.308375
20
26.014424
11
114.624927
21
25.874364
0
LINE
8
Layer 1
10
114.624927
20
25.874364
11
113.446417
21
25.365055
0
LINE
8
Layer 1
10
113.446417
20
25.365055
11
112.941055
21
25.059470
0
LINE
8
Layer 1
10
112.941055
20
25.059470
11
112.941053
21
25.059470
0
LINE
8
Layer 1
10
14.889200
20
46.840200
11
15.091127
21
46.989751
0
LINE
8
Layer 1
10
15.091127
20
46.989751
11
15.681811
21
47.089990
0
LINE
8
Layer 1
10
15.681811
20
47.089990
11
15.958448
21
46.952436
0
LINE
8
Layer 1
10
15.958448
20
46.952436
11
16.047021
21
46.684694
0
LINE
8
Layer 1
10
16.047021
20
46.684694
11
15.877047
21
46.036440
0
LINE
8
Layer 1
10
15.877047
20
46.036440
11
12.802442
21
39.231901
0
LINE
8
Layer 1
10
12.802442
20
39.231901
11
10.033999
21
32.346385
0
LINE
8
Layer 1
10
10.033999
20
32.346385
11
7.204947
21
24.189140
0
LINE
8
Layer 1
10
7.204947
20
24.189140
11
6.041872
21
19.911282
0
LINE
8
Layer 1
10
6.041872
20
19.911282
11
5.189884
21
15.704154
0
LINE
8
Layer 1
10
5.189884
20
15.704154
11
4.600899
21
11.711566
0
LINE
8
Layer 1
10
4.600899
20
11.711566
11
4.226829
21
8.077327
0
LINE
8
Layer 1
10
4.226829
20
8.077327
11
3.931099
21
2.459132
0
LINE
8
Layer 1
10
3.931099
20
2.459132
11
3.918007
21
0.000040
0
LINE
8
Layer 1
10
3.918007
20
0.000040
11
0.002603
21
0.000028
0
LINE
8
Layer 1
10
0.002603
20
0.000028
11
0.148876
21
2.656875
0
LINE
8
Layer 1
10
0.148876
20
2.656875
11
0.816589
21
8.207748
0
LINE
8
Layer 1
10
0.816589
20
8.207748
11
1.415757
21
11.771378
0
LINE
8
Layer 1
10
1.415757
20
11.771378
11
2.229010
21
15.702035
0
LINE
8
Layer 1
10
2.229010
20
15.702035
11
3.284255
21
19.880894
0
LINE
8
Layer 1
10
3.284255
20
19.880894
11
4.609403
21
24.189128
0
LINE
8
Layer 1
10
4.609403
20
24.189128
11
6.154827
21
28.463691
0
LINE
8
Layer 1
10
6.154827
20
28.463691
11
7.795674
21
32.546933
0
LINE
8
Layer 1
10
7.795674
20
32.546933
11
11.023961
21
39.697416
0
LINE
8
Layer 1
10
11.023961
20
39.697416
11
13.614919
21
44.756505
0
LINE
8
Layer 1
10
13.614919
20
44.756505
11
14.889203
21
46.840128
0
LINE
8
Layer 1
10
14.889203
20
46.840128
11
14.889200
21
46.840200
 0 
ENDSEC
 0 
EOF