999
"DXF R12 Output" (www.mydxf.blogspot.com)
 0 
SECTION
 2 
HEADER
 9 
$ACADVER
 1 
AC1009
 9 
$EXTMIN
 10 
 0 
 20 
 0 
 9 
$EXTMAX
 10 
 8.5 
 20 
 11 
 0 
ENDSEC
 0 
SECTION
 2 
ENTITIES
0
LINE
8
Layer 1
10
140.097000
20
14.763900
11
133.740250
21
19.023637
0
LINE
8
Layer 1
10
133.740250
20
19.023637
11
128.421188
21
22.287070
0
LINE
8
Layer 1
10
128.421188
20
22.287070
11
125.992656
21
23.600983
0
LINE
8
Layer 1
10
125.992656
20
23.600983
11
124.010000
21
24.474000
0
LINE
8
Layer 1
10
124.010000
20
24.474000
11
121.092817
21
25.527000
0
LINE
8
Layer 1
10
121.092817
20
25.527000
11
118.670625
21
26.206500
0
LINE
8
Layer 1
10
118.670625
20
26.206500
11
115.635788
21
26.766000
0
LINE
8
Layer 1
10
115.635788
20
26.766000
11
112.010620
21
27.039000
0
LINE
8
Layer 1
10
112.010620
20
27.039000
11
107.817439
21
26.859000
0
LINE
8
Layer 1
10
107.817439
20
26.859000
11
105.514817
21
26.547094
0
LINE
8
Layer 1
10
105.514817
20
26.547094
11
103.078560
21
26.059500
0
LINE
8
Layer 1
10
103.078560
20
26.059500
11
100.511458
21
25.375406
0
LINE
8
Layer 1
10
100.511458
20
25.375406
11
97.816300
21
24.474000
0
LINE
8
Layer 1
10
97.816300
20
24.474000
11
92.928163
21
22.737700
0
LINE
8
Layer 1
10
92.928163
20
22.737700
11
87.435602
21
21.002644
0
LINE
8
Layer 1
10
87.435602
20
21.002644
11
80.459700
21
19.076600
0
LINE
8
Layer 1
10
80.459700
20
19.076600
11
79.083900
21
18.229900
0
LINE
8
Layer 1
10
79.083900
20
18.229900
11
79.156612
21
10.239484
0
LINE
8
Layer 1
10
79.156612
20
10.239484
11
79.507200
21
6.614690
0
LINE
8
Layer 1
10
79.507200
20
6.614690
11
80.296809
21
4.240061
0
LINE
8
Layer 1
10
80.296809
20
4.240061
11
80.951753
21
3.100495
0
LINE
8
Layer 1
10
80.951753
20
3.100495
11
81.895050
21
2.123398
0
LINE
8
Layer 1
10
81.895050
20
2.123398
11
83.212897
21
1.406750
0
LINE
8
Layer 1
10
83.212897
20
1.406750
11
84.991491
21
1.048528
0
LINE
8
Layer 1
10
84.991491
20
1.048528
11
87.317026
21
1.146712
0
LINE
8
Layer 1
10
87.317026
20
1.146712
11
90.275700
21
1.799280
0
LINE
8
Layer 1
10
90.275700
20
1.799280
11
96.922469
21
3.921320
0
LINE
8
Layer 1
10
96.922469
20
3.921320
11
100.313133
21
4.965132
0
LINE
8
Layer 1
10
100.313133
20
4.965132
11
103.782575
21
5.837481
0
LINE
8
Layer 1
10
103.782575
20
5.837481
11
107.356239
21
6.418375
0
LINE
8
Layer 1
10
107.356239
20
6.418375
11
111.059569
21
6.587821
0
LINE
8
Layer 1
10
111.059569
20
6.587821
11
114.918008
21
6.225827
0
LINE
8
Layer 1
10
114.918008
20
6.225827
11
116.913345
21
5.808042
0
LINE
8
Layer 1
10
116.913345
20
5.808042
11
118.957000
21
5.212400
0
LINE
8
Layer 1
10
118.957000
20
5.212400
11
126.550031
21
2.929547
0
LINE
8
Layer 1
10
126.550031
20
2.929547
11
132.692000
21
1.554544
0
LINE
8
Layer 1
10
132.692000
20
1.554544
11
135.177762
21
1.187332
0
LINE
8
Layer 1
10
135.177762
20
1.187332
11
137.251469
21
1.022899
0
LINE
8
Layer 1
10
137.251469
20
1.022899
11
138.896691
21
1.053182
0
LINE
8
Layer 1
10
138.896691
20
1.053182
11
140.097000
21
1.270120
0
LINE
8
Layer 1
10
140.097000
20
1.270120
11
137.017750
21
4.306214
0
LINE
8
Layer 1
10
137.017750
20
4.306214
11
134.504625
21
7.230695
0
LINE
8
Layer 1
10
134.504625
20
7.230695
11
133.394336
21
8.790608
0
LINE
8
Layer 1
10
133.394336
20
8.790608
11
132.530000
21
10.318900
0
LINE
8
Layer 1
10
132.530000
20
10.318900
11
133.533750
21
10.633898
0
LINE
8
Layer 1
10
133.533750
20
10.633898
11
135.837250
21
11.549188
0
LINE
8
Layer 1
10
135.837250
20
11.549188
11
137.144648
21
12.199383
0
LINE
8
Layer 1
10
137.144648
20
12.199383
11
138.378875
21
12.960583
0
LINE
8
Layer 1
10
138.378875
20
12.960583
11
139.407227
21
13.819763
0
LINE
8
Layer 1
10
139.407227
20
13.819763
11
140.097000
21
14.763900
0
LINE
8
Layer 1
10
140.097000
20
14.763900
11
140.097000
21
14.763900
0
LINE
8
Layer 1
10
93.688800
20
16.510100
11
93.657392
21
16.733750
0
LINE
8
Layer 1
10
93.657392
20
16.733750
11
93.735137
21
17.366675
0
LINE
8
Layer 1
10
93.735137
20
17.366675
11
94.179989
21
18.351838
0
LINE
8
Layer 1
10
94.179989
20
18.351838
11
95.249900
21
19.632200
0
LINE
8
Layer 1
10
95.249900
20
19.632200
11
95.983285
21
20.208794
0
LINE
8
Layer 1
10
95.983285
20
20.208794
11
96.701786
21
20.554092
0
LINE
8
Layer 1
10
96.701786
20
20.554092
11
97.385560
21
20.704678
0
LINE
8
Layer 1
10
97.385560
20
20.704678
11
98.014762
21
20.697138
0
LINE
8
Layer 1
10
98.014762
20
20.697138
11
99.030083
21
20.354014
0
LINE
8
Layer 1
10
99.030083
20
20.354014
11
99.589000
21
19.817400
0
LINE
8
Layer 1
10
99.589000
20
19.817400
11
99.903233
21
19.121197
0
LINE
8
Layer 1
10
99.903233
20
19.121197
11
100.098412
21
18.038050
0
LINE
8
Layer 1
10
100.098412
20
18.038050
11
99.946286
21
16.468753
0
LINE
8
Layer 1
10
99.946286
20
16.468753
11
99.218600
21
14.314100
0
LINE
8
Layer 1
10
99.218600
20
14.314100
11
98.325675
21
12.514925
0
LINE
8
Layer 1
10
98.325675
20
12.514925
11
97.234300
21
10.636400
0
LINE
8
Layer 1
10
97.234300
20
10.636400
11
97.084260
21
10.225352
0
LINE
8
Layer 1
10
97.084260
20
10.225352
11
97.170177
21
10.096462
0
LINE
8
Layer 1
10
97.170177
20
10.096462
11
97.932038
21
10.404864
0
LINE
8
Layer 1
10
97.932038
20
10.404864
11
99.284205
21
11.001008
0
LINE
8
Layer 1
10
99.284205
20
11.001008
11
100.108004
21
11.231798
0
LINE
8
Layer 1
10
100.108004
20
11.231798
11
100.991000
21
11.324300
0
LINE
8
Layer 1
10
100.991000
20
11.324300
11
101.754922
21
11.232160
0
LINE
8
Layer 1
10
101.754922
20
11.232160
11
102.264875
21
10.989019
0
LINE
8
Layer 1
10
102.264875
20
10.989019
11
102.557141
21
10.644799
0
LINE
8
Layer 1
10
102.557141
20
10.644799
11
102.668000
21
10.249417
0
LINE
8
Layer 1
10
102.668000
20
10.249417
11
102.490625
21
9.504854
0
LINE
8
Layer 1
10
102.490625
20
9.504854
11
102.023000
21
9.154690
0
LINE
8
Layer 1
10
102.023000
20
9.154690
11
99.956794
21
8.660561
0
LINE
8
Layer 1
10
99.956794
20
8.660561
11
98.321859
21
8.143487
0
LINE
8
Layer 1
10
98.321859
20
8.143487
11
96.106450
21
7.236464
0
LINE
8
Layer 1
10
96.106450
20
7.236464
11
94.898066
21
6.825534
0
LINE
8
Layer 1
10
94.898066
20
6.825534
11
94.521912
21
6.928576
0
LINE
8
Layer 1
10
94.521912
20
6.928576
11
94.218000
21
7.302610
0
LINE
8
Layer 1
10
94.218000
20
7.302610
11
93.898011
21
8.330759
0
LINE
8
Layer 1
10
93.898011
20
8.330759
11
93.979862
21
9.316741
0
LINE
8
Layer 1
10
93.979862
20
9.316741
11
94.299858
21
10.208481
0
LINE
8
Layer 1
10
94.299858
20
10.208481
11
94.694300
21
10.953900
0
LINE
8
Layer 1
10
94.694300
20
10.953900
11
95.568214
21
12.282998
0
LINE
8
Layer 1
10
95.568214
20
12.282998
11
96.843987
21
14.423212
0
LINE
8
Layer 1
10
96.843987
20
14.423212
11
97.373672
21
15.545567
0
LINE
8
Layer 1
10
97.373672
20
15.545567
11
97.693142
21
16.568395
0
LINE
8
Layer 1
10
97.693142
20
16.568395
11
97.698838
21
17.390929
0
LINE
8
Layer 1
10
97.698838
20
17.390929
11
97.551658
21
17.695595
0
LINE
8
Layer 1
10
97.551658
20
17.695595
11
97.287200
21
17.912400
0
LINE
8
Layer 1
10
97.287200
20
17.912400
11
96.876648
21
17.991353
0
LINE
8
Layer 1
10
96.876648
20
17.991353
11
96.483487
21
17.809850
0
LINE
8
Layer 1
10
96.483487
20
17.809850
11
95.779000
21
17.012800
0
LINE
8
Layer 1
10
95.779000
20
17.012800
11
95.345788
21
16.271963
0
LINE
8
Layer 1
10
95.345788
20
16.271963
11
94.773600
21
15.689900
0
LINE
8
Layer 1
10
94.773600
20
15.689900
11
94.418067
21
15.710141
0
LINE
8
Layer 1
10
94.418067
20
15.710141
11
94.112137
21
15.871775
0
LINE
8
Layer 1
10
94.112137
20
15.871775
11
93.688800
21
16.510100
0
LINE
8
Layer 1
10
93.688800
20
16.510100
11
93.688800
21
16.510100
0
LINE
8
Layer 1
10
113.275000
20
19.339500
11
113.243563
21
19.563164
0
LINE
8
Layer 1
10
113.243563
20
19.563164
11
113.321250
21
20.196113
0
LINE
8
Layer 1
10
113.321250
20
20.196113
11
113.766063
21
21.181280
0
LINE
8
Layer 1
10
113.766063
20
21.181280
11
114.836000
21
22.461600
0
LINE
8
Layer 1
10
114.836000
20
22.461600
11
115.569385
21
23.038223
0
LINE
8
Layer 1
10
115.569385
20
23.038223
11
116.287828
21
23.383534
0
LINE
8
Layer 1
10
116.287828
20
23.383534
11
116.971514
21
23.534122
0
LINE
8
Layer 1
10
116.971514
20
23.534122
11
117.600625
21
23.526575
0
LINE
8
Layer 1
10
117.600625
20
23.526575
11
118.615859
21
23.183428
0
LINE
8
Layer 1
10
118.615859
20
23.183428
11
119.175000
21
22.646800
0
LINE
8
Layer 1
10
119.175000
20
22.646800
11
119.489266
21
21.950653
0
LINE
8
Layer 1
10
119.489266
20
21.950653
11
119.684375
21
20.867525
0
LINE
8
Layer 1
10
119.684375
20
20.867525
11
119.532047
21
19.298209
0
LINE
8
Layer 1
10
119.532047
20
19.298209
11
118.804000
21
17.143500
0
LINE
8
Layer 1
10
118.804000
20
17.143500
11
117.709875
21
15.027625
0
LINE
8
Layer 1
10
117.709875
20
15.027625
11
116.417000
21
12.832400
0
LINE
8
Layer 1
10
116.417000
20
12.832400
11
116.406967
21
12.562362
0
LINE
8
Layer 1
10
116.406967
20
12.562362
11
116.672734
21
12.324998
0
LINE
8
Layer 1
10
116.672734
20
12.324998
11
117.750375
21
11.923863
0
LINE
8
Layer 1
10
117.750375
20
11.923863
11
120.121000
21
11.244900
0
LINE
8
Layer 1
10
120.121000
20
11.244900
11
120.374146
21
11.010166
0
LINE
8
Layer 1
10
120.374146
20
11.010166
11
120.459609
21
10.681636
0
LINE
8
Layer 1
10
120.459609
20
10.681636
11
120.250625
21
9.913723
0
LINE
8
Layer 1
10
120.250625
20
9.913723
11
119.740328
21
9.282231
0
LINE
8
Layer 1
10
119.740328
20
9.282231
11
119.449150
21
9.124227
0
LINE
8
Layer 1
10
119.449150
20
9.124227
11
119.175000
21
9.128230
0
LINE
8
Layer 1
10
119.175000
20
9.128230
11
116.965375
21
9.849011
0
LINE
8
Layer 1
10
116.965375
20
9.849011
11
115.370391
21
10.147031
0
LINE
8
Layer 1
10
115.370391
20
10.147031
11
113.804000
21
10.132100
0
LINE
8
Layer 1
10
113.804000
20
10.132100
11
113.357367
21
10.180087
0
LINE
8
Layer 1
10
113.357367
20
10.180087
11
113.151625
21
10.472424
0
LINE
8
Layer 1
10
113.151625
20
10.472424
11
113.270250
21
11.534824
0
LINE
8
Layer 1
10
113.270250
20
11.534824
11
113.774750
21
12.808662
0
LINE
8
Layer 1
10
113.774750
20
12.808662
11
114.280000
21
13.783300
0
LINE
8
Layer 1
10
114.280000
20
13.783300
11
115.153859
21
15.112413
0
LINE
8
Layer 1
10
115.153859
20
15.112413
11
116.429625
21
17.252650
0
LINE
8
Layer 1
10
116.429625
20
17.252650
11
116.959326
21
18.375011
0
LINE
8
Layer 1
10
116.959326
20
18.375011
11
117.278828
21
19.397838
0
LINE
8
Layer 1
10
117.278828
20
19.397838
11
117.284572
21
20.220358
0
LINE
8
Layer 1
10
117.284572
20
20.220358
11
117.137423
21
20.525012
0
LINE
8
Layer 1
10
117.137423
20
20.525012
11
116.873000
21
20.741800
0
LINE
8
Layer 1
10
116.873000
20
20.741800
11
116.462297
21
20.820769
0
LINE
8
Layer 1
10
116.462297
20
20.820769
11
116.069125
21
20.639300
0
LINE
8
Layer 1
10
116.069125
20
20.639300
11
115.365000
21
19.842300
0
LINE
8
Layer 1
10
115.365000
20
19.842300
11
114.931750
21
19.101413
0
LINE
8
Layer 1
10
114.931750
20
19.101413
11
114.359000
21
18.519300
0
LINE
8
Layer 1
10
114.359000
20
18.519300
11
114.003859
21
18.539597
0
LINE
8
Layer 1
10
114.003859
20
18.539597
11
113.698125
21
18.701250
0
LINE
8
Layer 1
10
113.698125
20
18.701250
11
113.275000
21
19.339500
0
LINE
8
Layer 1
10
113.275000
20
19.339500
11
113.275000
21
19.339500
0
LINE
8
Layer 1
10
109.934000
20
20.637600
11
110.386969
21
18.910350
0
LINE
8
Layer 1
10
110.386969
20
18.910350
11
110.678500
21
16.940025
0
LINE
8
Layer 1
10
110.678500
20
16.940025
11
110.697031
21
14.781187
0
LINE
8
Layer 1
10
110.697031
20
14.781187
11
110.331000
21
12.488400
0
LINE
8
Layer 1
10
110.331000
20
12.488400
11
109.887189
21
11.472817
0
LINE
8
Layer 1
10
109.887189
20
11.472817
11
109.201891
21
10.748375
0
LINE
8
Layer 1
10
109.201891
20
10.748375
11
108.351053
21
10.286239
0
LINE
8
Layer 1
10
108.351053
20
10.286239
11
107.410625
21
10.057573
0
LINE
8
Layer 1
10
107.410625
20
10.057573
11
106.456557
21
10.033541
0
LINE
8
Layer 1
10
106.456557
20
10.033541
11
105.564797
21
10.185308
0
LINE
8
Layer 1
10
105.564797
20
10.185308
11
104.811295
21
10.484040
0
LINE
8
Layer 1
10
104.811295
20
10.484040
11
104.272000
21
10.900900
0
LINE
8
Layer 1
10
104.272000
20
10.900900
11
103.489891
21
12.328019
0
LINE
8
Layer 1
10
103.489891
20
12.328019
11
102.896125
21
14.499250
0
LINE
8
Layer 1
10
102.896125
20
14.499250
11
102.619797
21
17.047506
0
LINE
8
Layer 1
10
102.619797
20
17.047506
11
102.790000
21
19.605700
0
LINE
8
Layer 1
10
102.790000
20
19.605700
11
103.094516
21
20.696892
0
LINE
8
Layer 1
10
103.094516
20
20.696892
11
103.523625
21
21.533845
0
LINE
8
Layer 1
10
103.523625
20
21.533845
11
104.035797
21
22.152522
0
LINE
8
Layer 1
10
104.035797
20
22.152522
11
104.589500
21
22.588888
0
LINE
8
Layer 1
10
104.589500
20
22.588888
11
105.655375
21
23.058536
0
LINE
8
Layer 1
10
105.655375
20
23.058536
11
106.389000
21
23.230500
0
LINE
8
Layer 1
10
106.389000
20
23.230500
11
107.511594
21
23.146533
0
LINE
8
Layer 1
10
107.511594
20
23.146533
11
108.507250
21
22.730963
0
LINE
8
Layer 1
10
108.507250
20
22.730963
11
109.330031
21
21.916936
0
LINE
8
Layer 1
10
109.330031
20
21.916936
11
109.934000
21
20.637600
0
LINE
8
Layer 1
10
109.934000
20
20.637600
11
109.934000
21
20.637600
0
LINE
8
Layer 1
10
106.442000
20
20.849300
11
105.906365
21
20.646761
0
LINE
8
Layer 1
10
105.906365
20
20.646761
11
105.516547
21
20.280827
0
LINE
8
Layer 1
10
105.516547
20
20.280827
11
105.092375
21
19.198912
0
LINE
8
Layer 1
10
105.092375
20
19.198912
11
105.005516
21
17.883842
0
LINE
8
Layer 1
10
105.005516
20
17.883842
11
105.092000
21
16.615900
0
LINE
8
Layer 1
10
105.092000
20
16.615900
11
105.727000
21
13.546750
0
LINE
8
Layer 1
10
105.727000
20
13.546750
11
106.051906
21
12.709197
0
LINE
8
Layer 1
10
106.051906
20
12.709197
11
106.362000
21
12.223900
0
LINE
8
Layer 1
10
106.362000
20
12.223900
11
106.743594
21
11.967553
0
LINE
8
Layer 1
10
106.743594
20
11.967553
11
107.110000
21
11.919575
0
LINE
8
Layer 1
10
107.110000
20
11.919575
11
107.486156
21
12.089884
0
LINE
8
Layer 1
10
107.486156
20
12.089884
11
107.897000
21
12.488400
0
LINE
8
Layer 1
10
107.897000
20
12.488400
11
108.241000
21
13.351650
0
LINE
8
Layer 1
10
108.241000
20
13.351650
11
108.426000
21
14.631600
0
LINE
8
Layer 1
10
108.426000
20
14.631600
11
108.453000
21
16.510100
0
LINE
8
Layer 1
10
108.453000
20
16.510100
11
108.414125
21
17.221583
0
LINE
8
Layer 1
10
108.414125
20
17.221583
11
108.181750
21
18.768988
0
LINE
8
Layer 1
10
108.181750
20
18.768988
11
107.938742
21
19.580984
0
LINE
8
Layer 1
10
107.938742
20
19.580984
11
107.582250
21
20.271748
0
LINE
8
Layer 1
10
107.582250
20
20.271748
11
107.090570
21
20.731211
0
LINE
8
Layer 1
10
107.090570
20
20.731211
11
106.442000
21
20.849300
0
LINE
8
Layer 1
10
106.442000
20
20.849300
11
106.442000
21
20.849300
0
LINE
8
Layer 1
10
79.692400
20
6.455940
11
79.785830
21
6.877207
0
LINE
8
Layer 1
10
79.785830
20
6.877207
11
80.300938
21
7.901232
0
LINE
8
Layer 1
10
80.300938
20
7.901232
11
80.826692
21
8.526884
0
LINE
8
Layer 1
10
80.826692
20
8.526884
11
81.589952
21
9.168352
0
LINE
8
Layer 1
10
81.589952
20
9.168352
11
82.634745
21
9.780676
0
LINE
8
Layer 1
10
82.634745
20
9.780676
11
84.005100
21
10.318900
0
LINE
8
Layer 1
10
84.005100
20
10.318900
11
89.257075
21
11.932825
0
LINE
8
Layer 1
10
89.257075
20
11.932825
11
89.965463
21
12.263457
0
LINE
8
Layer 1
10
89.965463
20
12.263457
11
90.479138
21
12.662922
0
LINE
8
Layer 1
10
90.479138
20
12.662922
11
90.821662
21
13.180207
0
LINE
8
Layer 1
10
90.821662
20
13.180207
11
91.016600
21
13.864300
0
LINE
8
Layer 1
10
91.016600
20
13.864300
11
91.267919
21
17.515952
0
LINE
8
Layer 1
10
91.267919
20
17.515952
11
91.459725
21
23.591012
0
LINE
8
Layer 1
10
91.459725
20
23.591012
11
91.522569
21
29.472592
0
LINE
8
Layer 1
10
91.522569
20
29.472592
11
91.387000
21
32.543800
0
LINE
8
Layer 1
10
91.387000
20
32.543800
11
91.142936
21
32.660711
0
LINE
8
Layer 1
10
91.142936
20
32.660711
11
90.679656
21
32.293300
0
LINE
8
Layer 1
10
90.679656
20
32.293300
11
89.042125
21
30.559450
0
LINE
8
Layer 1
10
89.042125
20
30.559450
11
87.841211
21
29.419980
0
LINE
8
Layer 1
10
87.841211
20
29.419980
11
86.367756
21
28.250125
0
LINE
8
Layer 1
10
86.367756
20
28.250125
11
84.608430
21
27.163370
0
LINE
8
Layer 1
10
84.608430
20
27.163370
11
82.549900
21
26.273200
0
LINE
8
Layer 1
10
82.549900
20
26.273200
11
82.027769
21
26.187631
0
LINE
8
Layer 1
10
82.027769
20
26.187631
11
80.873125
21
25.707675
0
LINE
8
Layer 1
10
80.873125
20
25.707675
11
80.251619
21
25.215153
0
LINE
8
Layer 1
10
80.251619
20
25.215153
11
79.703594
21
24.498456
0
LINE
8
Layer 1
10
79.703594
20
24.498456
11
79.306253
21
23.515725
0
LINE
8
Layer 1
10
79.306253
20
23.515725
11
79.136800
21
22.225100
0
LINE
8
Layer 1
10
79.136800
20
22.225100
11
79.123537
21
14.079246
0
LINE
8
Layer 1
10
79.123537
20
14.079246
11
79.348400
21
7.461360
0
LINE
8
Layer 1
10
79.348400
20
7.461360
11
79.589850
21
6.621308
0
LINE
8
Layer 1
10
79.589850
20
6.621308
11
79.692400
21
6.455940
0
LINE
8
Layer 1
10
79.692400
20
6.455940
11
79.692400
21
6.455940
0
LINE
8
Layer 1
10
0.105832
20
44.820500
11
4.867083
21
46.321184
0
LINE
8
Layer 1
10
4.867083
20
46.321184
11
10.203337
21
47.848223
0
LINE
8
Layer 1
10
10.203337
20
47.848223
11
16.963066
21
49.583000
0
LINE
8
Layer 1
10
16.963066
20
49.583000
11
24.736064
21
51.292971
0
LINE
8
Layer 1
10
24.736064
20
51.292971
11
33.112124
21
52.745591
0
LINE
8
Layer 1
10
33.112124
20
52.745591
11
37.398112
21
53.302724
0
LINE
8
Layer 1
10
37.398112
20
53.302724
11
41.681038
21
53.708315
0
LINE
8
Layer 1
10
41.681038
20
53.708315
11
45.909626
21
53.933297
0
LINE
8
Layer 1
10
45.909626
20
53.933297
11
50.032600
21
53.948600
0
LINE
8
Layer 1
10
50.032600
20
53.948600
11
55.382726
21
53.479271
0
LINE
8
Layer 1
10
55.382726
20
53.479271
11
60.443562
21
52.768722
0
LINE
8
Layer 1
10
60.443562
20
52.768722
11
65.191237
21
51.851055
0
LINE
8
Layer 1
10
65.191237
20
51.851055
11
69.601875
21
50.760375
0
LINE
8
Layer 1
10
69.601875
20
50.760375
11
73.651604
21
49.530786
0
LINE
8
Layer 1
10
73.651604
20
49.530786
11
77.316550
21
48.196391
0
LINE
8
Layer 1
10
77.316550
20
48.196391
11
80.572840
21
46.791294
0
LINE
8
Layer 1
10
80.572840
20
46.791294
11
83.396600
21
45.349600
0
LINE
8
Layer 1
10
83.396600
20
45.349600
11
84.915441
21
44.487648
0
LINE
8
Layer 1
10
84.915441
20
44.487648
11
87.213175
21
43.037838
0
LINE
8
Layer 1
10
87.213175
20
43.037838
11
89.520847
21
41.275483
0
LINE
8
Layer 1
10
89.520847
20
41.275483
11
90.438111
21
40.363138
0
LINE
8
Layer 1
10
90.438111
20
40.363138
11
91.069500
21
39.475900
0
LINE
8
Layer 1
10
91.069500
20
39.475900
11
91.354959
21
38.209309
0
LINE
8
Layer 1
10
91.354959
20
38.209309
11
91.512670
21
35.529475
0
LINE
8
Layer 1
10
91.512670
20
35.529475
11
91.539112
21
27.768100
0
LINE
8
Layer 1
10
91.539112
20
27.768100
11
91.337348
21
19.867825
0
LINE
8
Layer 1
10
91.337348
20
19.867825
11
91.095900
21
15.504700
0
LINE
8
Layer 1
10
91.095900
20
15.504700
11
91.059562
21
14.737413
0
LINE
8
Layer 1
10
91.059562
20
14.737413
11
90.804900
21
15.398800
0
LINE
8
Layer 1
10
90.804900
20
15.398800
11
90.352851
21
16.086403
0
LINE
8
Layer 1
10
90.352851
20
16.086403
11
89.714924
21
16.768307
0
LINE
8
Layer 1
10
89.714924
20
16.768307
11
87.963912
21
18.104628
0
LINE
8
Layer 1
10
87.963912
20
18.104628
11
85.716813
21
19.386992
0
LINE
8
Layer 1
10
85.716813
20
19.386992
11
83.138575
21
20.594625
0
LINE
8
Layer 1
10
83.138575
20
20.594625
11
77.648475
21
22.702609
0
LINE
8
Layer 1
10
77.648475
20
22.702609
11
72.813200
21
24.262400
0
LINE
8
Layer 1
10
72.813200
20
24.262400
11
68.173919
21
25.515036
0
LINE
8
Layer 1
10
68.173919
20
25.515036
11
62.329125
21
26.663488
0
LINE
8
Layer 1
10
62.329125
20
26.663488
11
58.869395
21
27.091672
0
LINE
8
Layer 1
10
58.869395
20
27.091672
11
55.005969
21
27.365445
0
LINE
8
Layer 1
10
55.005969
20
27.365445
11
50.704739
21
27.442017
0
LINE
8
Layer 1
10
50.704739
20
27.442017
11
45.931600
21
27.278600
0
LINE
8
Layer 1
10
45.931600
20
27.278600
11
40.766383
21
26.884984
0
LINE
8
Layer 1
10
40.766383
20
26.884984
11
35.734808
21
26.342231
0
LINE
8
Layer 1
10
35.734808
20
26.342231
11
26.230088
21
24.946975
0
LINE
8
Layer 1
10
26.230088
20
24.946975
11
17.732448
21
23.368156
0
LINE
8
Layer 1
10
17.732448
20
23.368156
11
10.556900
21
21.881100
0
LINE
8
Layer 1
10
10.556900
20
21.881100
11
6.764659
21
21.176672
0
LINE
8
Layer 1
10
6.764659
20
21.176672
11
3.555338
21
20.710350
0
LINE
8
Layer 1
10
3.555338
20
20.710350
11
0.502705
21
20.373000
0
LINE
8
Layer 1
10
0.105832
20
44.820500
11
4.867083
21
46.321184
0
LINE
8
Layer 1
10
4.867083
20
46.321184
11
10.203337
21
47.848223
0
LINE
8
Layer 1
10
10.203337
20
47.848223
11
16.963066
21
49.583000
0
LINE
8
Layer 1
10
16.963066
20
49.583000
11
24.736064
21
51.292971
0
LINE
8
Layer 1
10
24.736064
20
51.292971
11
33.112124
21
52.745591
0
LINE
8
Layer 1
10
33.112124
20
52.745591
11
37.398112
21
53.302724
0
LINE
8
Layer 1
10
37.398112
20
53.302724
11
41.681038
21
53.708315
0
LINE
8
Layer 1
10
41.681038
20
53.708315
11
45.909626
21
53.933297
0
LINE
8
Layer 1
10
45.909626
20
53.933297
11
50.032600
21
53.948600
0
LINE
8
Layer 1
10
50.032600
20
53.948600
11
55.382726
21
53.479271
0
LINE
8
Layer 1
10
55.382726
20
53.479271
11
60.443562
21
52.768722
0
LINE
8
Layer 1
10
60.443562
20
52.768722
11
65.191237
21
51.851055
0
LINE
8
Layer 1
10
65.191237
20
51.851055
11
69.601875
21
50.760375
0
LINE
8
Layer 1
10
69.601875
20
50.760375
11
73.651604
21
49.530786
0
LINE
8
Layer 1
10
73.651604
20
49.530786
11
77.316550
21
48.196391
0
LINE
8
Layer 1
10
77.316550
20
48.196391
11
80.572840
21
46.791294
0
LINE
8
Layer 1
10
80.572840
20
46.791294
11
83.396600
21
45.349600
0
LINE
8
Layer 1
10
83.396600
20
45.349600
11
84.915441
21
44.487648
0
LINE
8
Layer 1
10
84.915441
20
44.487648
11
87.213175
21
43.037838
0
LINE
8
Layer 1
10
87.213175
20
43.037838
11
89.520847
21
41.275483
0
LINE
8
Layer 1
10
89.520847
20
41.275483
11
90.438111
21
40.363138
0
LINE
8
Layer 1
10
90.438111
20
40.363138
11
91.069500
21
39.475900
0
LINE
8
Layer 1
10
91.069500
20
39.475900
11
91.354959
21
38.209309
0
LINE
8
Layer 1
10
91.354959
20
38.209309
11
91.512670
21
35.529475
0
LINE
8
Layer 1
10
91.512670
20
35.529475
11
91.539112
21
27.768100
0
LINE
8
Layer 1
10
91.539112
20
27.768100
11
91.337348
21
19.867825
0
LINE
8
Layer 1
10
91.337348
20
19.867825
11
91.095900
21
15.504700
0
LINE
8
Layer 1
10
91.095900
20
15.504700
11
91.059562
21
14.737413
0
LINE
8
Layer 1
10
91.059562
20
14.737413
11
90.804900
21
15.398800
0
LINE
8
Layer 1
10
90.804900
20
15.398800
11
90.352851
21
16.086403
0
LINE
8
Layer 1
10
90.352851
20
16.086403
11
89.714924
21
16.768307
0
LINE
8
Layer 1
10
89.714924
20
16.768307
11
87.963912
21
18.104628
0
LINE
8
Layer 1
10
87.963912
20
18.104628
11
85.716813
21
19.386992
0
LINE
8
Layer 1
10
85.716813
20
19.386992
11
83.138575
21
20.594625
0
LINE
8
Layer 1
10
83.138575
20
20.594625
11
77.648475
21
22.702609
0
LINE
8
Layer 1
10
77.648475
20
22.702609
11
72.813200
21
24.262400
0
LINE
8
Layer 1
10
72.813200
20
24.262400
11
68.173919
21
25.515036
0
LINE
8
Layer 1
10
68.173919
20
25.515036
11
62.329125
21
26.663488
0
LINE
8
Layer 1
10
62.329125
20
26.663488
11
58.869395
21
27.091672
0
LINE
8
Layer 1
10
58.869395
20
27.091672
11
55.005969
21
27.365445
0
LINE
8
Layer 1
10
55.005969
20
27.365445
11
50.704739
21
27.442017
0
LINE
8
Layer 1
10
50.704739
20
27.442017
11
45.931600
21
27.278600
0
LINE
8
Layer 1
10
45.931600
20
27.278600
11
40.766383
21
26.884984
0
LINE
8
Layer 1
10
40.766383
20
26.884984
11
35.734808
21
26.342231
0
LINE
8
Layer 1
10
35.734808
20
26.342231
11
26.230088
21
24.946975
0
LINE
8
Layer 1
10
26.230088
20
24.946975
11
17.732448
21
23.368156
0
LINE
8
Layer 1
10
17.732448
20
23.368156
11
10.556900
21
21.881100
0
LINE
8
Layer 1
10
10.556900
20
21.881100
11
6.764659
21
21.176672
0
LINE
8
Layer 1
10
6.764659
20
21.176672
11
3.555338
21
20.710350
0
LINE
8
Layer 1
10
3.555338
20
20.710350
11
0.502705
21
20.373000
0
LINE
8
Layer 1
10
23.124600
20
42.492100
11
24.870800
21
37.226900
0
LINE
8
Layer 1
10
24.870800
20
37.226900
11
25.796800
21
33.972600
0
LINE
8
Layer 1
10
25.796800
20
33.972600
11
26.173863
21
32.368575
0
LINE
8
Layer 1
10
26.173863
20
32.368575
11
26.287989
21
31.170928
0
LINE
8
Layer 1
10
26.287989
20
31.170928
11
26.222267
21
30.708683
0
LINE
8
Layer 1
10
26.222267
20
30.708683
11
26.035000
21
30.427200
0
LINE
8
Layer 1
10
26.035000
20
30.427200
11
25.626514
21
30.143997
0
LINE
8
Layer 1
10
25.626514
20
30.143997
11
25.108912
21
30.126200
0
LINE
8
Layer 1
10
25.108912
20
30.126200
11
24.591330
21
30.311803
0
LINE
8
Layer 1
10
24.591330
20
30.311803
11
24.182900
21
30.638800
0
LINE
8
Layer 1
10
24.182900
20
30.638800
11
23.768245
21
31.418492
0
LINE
8
Layer 1
10
23.768245
20
31.418492
11
23.405687
21
32.411513
0
LINE
8
Layer 1
10
23.405687
20
32.411513
11
22.886400
21
34.343000
0
LINE
8
Layer 1
10
22.886400
20
34.343000
11
22.516000
21
35.269000
0
LINE
8
Layer 1
10
22.516000
20
35.269000
11
22.139808
21
35.358745
0
LINE
8
Layer 1
10
22.139808
20
35.358745
11
21.689187
21
35.312038
0
LINE
8
Layer 1
10
21.689187
20
35.312038
11
20.822700
21
35.057400
0
LINE
8
Layer 1
10
20.822700
20
35.057400
11
19.288100
21
34.369500
0
LINE
8
Layer 1
10
19.288100
20
34.369500
11
19.071069
21
33.514955
0
LINE
8
Layer 1
10
19.071069
20
33.514955
11
19.079750
21
33.625312
0
LINE
8
Layer 1
10
19.079750
20
33.625312
11
19.087346
21
33.677241
0
LINE
8
Layer 1
10
19.087346
20
33.677241
11
19.053706
21
33.532289
0
LINE
8
Layer 1
10
19.053706
20
33.532289
11
18.732500
21
32.067600
0
LINE
8
Layer 1
10
18.732500
20
32.067600
11
18.203300
21
29.421700
0
LINE
8
Layer 1
10
18.203300
20
29.421700
11
17.874245
21
28.898745
0
LINE
8
Layer 1
10
17.874245
20
28.898745
11
17.237588
21
28.393162
0
LINE
8
Layer 1
10
17.237588
20
28.393162
11
16.856621
21
28.291838
0
LINE
8
Layer 1
10
16.856621
20
28.291838
11
16.462011
21
28.368798
0
LINE
8
Layer 1
10
16.462011
20
28.368798
11
16.074842
21
28.682026
0
LINE
8
Layer 1
10
16.074842
20
28.682026
11
15.716200
21
29.289500
0
LINE
8
Layer 1
10
15.716200
20
29.289500
11
15.795600
21
30.559500
0
LINE
8
Layer 1
10
15.795600
20
30.559500
11
16.199087
21
33.913050
0
LINE
8
Layer 1
10
16.199087
20
33.913050
11
16.777852
21
37.323675
0
LINE
8
Layer 1
10
16.777852
20
37.323675
11
17.674100
21
41.195700
0
LINE
8
Layer 1
10
17.674100
20
41.195700
11
18.215063
21
42.893049
0
LINE
8
Layer 1
10
18.215063
20
42.893049
11
18.752297
21
44.108573
0
LINE
8
Layer 1
10
18.752297
20
44.108573
11
19.264720
21
44.921027
0
LINE
8
Layer 1
10
19.264720
20
44.921027
11
19.731250
21
45.409163
0
LINE
8
Layer 1
10
19.731250
20
45.409163
11
20.442303
21
45.727495
0
LINE
8
Layer 1
10
20.442303
20
45.727495
11
20.716800
21
45.693600
0
LINE
8
Layer 1
10
20.716800
20
45.693600
11
21.145120
21
45.617533
0
LINE
8
Layer 1
10
21.145120
20
45.617533
11
21.662737
21
45.223962
0
LINE
8
Layer 1
10
21.662737
20
45.223962
11
22.309336
21
44.264836
0
LINE
8
Layer 1
10
22.309336
20
44.264836
11
23.124600
21
42.492100
0
LINE
8
Layer 1
10
23.124600
20
42.492100
11
23.124600
21
42.492100
0
LINE
8
Layer 1
10
19.182300
20
37.041700
11
20.472125
21
37.345975
0
LINE
8
Layer 1
10
20.472125
20
37.345975
11
21.414694
21
37.644475
0
LINE
8
Layer 1
10
21.414694
20
37.644475
11
21.960400
21
37.967800
0
LINE
8
Layer 1
10
21.960400
20
37.967800
11
21.944283
21
38.872328
0
LINE
8
Layer 1
10
21.944283
20
38.872328
11
21.613138
21
40.461475
0
LINE
8
Layer 1
10
21.613138
20
40.461475
11
21.138123
21
42.001009
0
LINE
8
Layer 1
10
21.138123
20
42.001009
11
20.690400
21
42.756700
0
LINE
8
Layer 1
10
20.690400
20
42.756700
11
20.291030
21
42.462780
0
LINE
8
Layer 1
10
20.291030
20
42.462780
11
19.856963
21
41.397437
0
LINE
8
Layer 1
10
19.856963
20
41.397437
11
19.462589
21
39.582977
0
LINE
8
Layer 1
10
19.462589
20
39.582977
11
19.182300
21
37.041700
0
LINE
8
Layer 1
10
19.182300
20
37.041700
11
19.182300
21
37.041700
0
LINE
8
Layer 1
10
39.793300
20
48.577600
11
39.012775
21
48.828950
0
LINE
8
Layer 1
10
39.012775
20
48.828950
11
38.386853
21
48.733863
0
LINE
8
Layer 1
10
38.386853
20
48.733863
11
38.116983
21
48.511756
0
LINE
8
Layer 1
10
38.116983
20
48.511756
11
37.914700
21
48.127800
0
LINE
8
Layer 1
10
37.914700
20
48.127800
11
37.765900
21
43.385125
0
LINE
8
Layer 1
10
37.765900
20
43.385125
11
37.756000
21
38.840900
0
LINE
8
Layer 1
10
37.756000
20
38.840900
11
37.438500
21
32.596700
0
LINE
8
Layer 1
10
37.438500
20
32.596700
11
37.703100
21
32.117200
0
LINE
8
Layer 1
10
37.703100
20
32.117200
11
38.126400
21
31.935300
0
LINE
8
Layer 1
10
38.126400
20
31.935300
11
39.096683
21
31.996484
0
LINE
8
Layer 1
10
39.096683
20
31.996484
11
39.617987
21
32.285875
0
LINE
8
Layer 1
10
39.617987
20
32.285875
11
39.856523
21
32.664553
0
LINE
8
Layer 1
10
39.856523
20
32.664553
11
39.978500
21
32.993600
0
LINE
8
Layer 1
10
39.978500
20
32.993600
11
40.193463
21
35.206212
0
LINE
8
Layer 1
10
40.193463
20
35.206212
11
40.428300
21
37.200500
0
LINE
8
Layer 1
10
40.428300
20
37.200500
11
41.122813
21
37.627125
0
LINE
8
Layer 1
10
41.122813
20
37.627125
11
41.857000
21
38.232400
0
LINE
8
Layer 1
10
41.857000
20
38.232400
11
42.151767
21
37.783425
0
LINE
8
Layer 1
10
42.151767
20
37.783425
11
42.726838
21
36.446450
0
LINE
8
Layer 1
10
42.726838
20
36.446450
11
43.535064
21
34.772125
0
LINE
8
Layer 1
10
43.535064
20
34.772125
11
44.529300
21
33.311100
0
LINE
8
Layer 1
10
44.529300
20
33.311100
11
45.416066
21
32.710017
0
LINE
8
Layer 1
10
45.416066
20
32.710017
11
46.206100
21
32.669513
0
LINE
8
Layer 1
10
46.206100
20
32.669513
11
46.488103
21
32.848622
0
LINE
8
Layer 1
10
46.488103
20
32.848622
11
46.653834
21
33.154852
0
LINE
8
Layer 1
10
46.653834
20
33.154852
11
46.672599
21
33.583858
0
LINE
8
Layer 1
10
46.672599
20
33.583858
11
46.513700
21
34.131300
0
LINE
8
Layer 1
10
46.513700
20
34.131300
11
45.905200
21
35.639400
0
LINE
8
Layer 1
10
45.905200
20
35.639400
11
43.973700
21
39.581700
0
LINE
8
Layer 1
10
43.973700
20
39.581700
11
44.608700
21
40.693000
0
LINE
8
Layer 1
10
44.608700
20
40.693000
11
46.143300
21
43.656300
0
LINE
8
Layer 1
10
46.143300
20
43.656300
11
47.330613
21
46.156625
0
LINE
8
Layer 1
10
47.330613
20
46.156625
11
47.880848
21
47.696991
0
LINE
8
Layer 1
10
47.880848
20
47.696991
11
48.021800
21
48.736300
0
LINE
8
Layer 1
10
48.021800
20
48.736300
11
47.631550
21
49.573050
0
LINE
8
Layer 1
10
47.631550
20
49.573050
11
47.344662
21
49.722306
0
LINE
8
Layer 1
10
47.344662
20
49.722306
11
46.963500
21
49.715300
0
LINE
8
Layer 1
10
46.963500
20
49.715300
11
46.591841
21
49.595377
0
LINE
8
Layer 1
10
46.591841
20
49.595377
11
46.292125
21
49.331613
0
LINE
8
Layer 1
10
46.292125
20
49.331613
11
45.561200
21
47.995500
0
LINE
8
Layer 1
10
45.561200
20
47.995500
11
44.165487
21
45.263638
0
LINE
8
Layer 1
10
44.165487
20
45.263638
11
42.571400
21
42.492100
0
LINE
8
Layer 1
10
42.571400
20
42.492100
11
41.807412
21
41.476788
0
LINE
8
Layer 1
10
41.807412
20
41.476788
11
41.064505
21
40.650405
0
LINE
8
Layer 1
10
41.064505
20
40.650405
11
40.269500
21
40.005100
0
LINE
8
Layer 1
10
40.269500
20
40.005100
11
40.415050
21
41.625650
0
LINE
8
Layer 1
10
40.415050
20
41.625650
11
40.560600
21
45.270300
0
LINE
8
Layer 1
10
40.560600
20
45.270300
11
40.373716
21
47.070705
0
LINE
8
Layer 1
10
40.373716
20
47.070705
11
40.117400
21
48.064963
0
LINE
8
Layer 1
10
40.117400
20
48.064963
11
39.793300
21
48.577600
0
LINE
8
Layer 1
10
39.793300
20
48.577600
11
39.793300
21
48.577600
0
LINE
8
Layer 1
10
61.198000
20
44.661700
11
61.338563
21
44.778695
0
LINE
8
Layer 1
10
61.338563
20
44.778695
11
61.508900
21
45.220637
0
LINE
8
Layer 1
10
61.508900
20
45.220637
11
61.331987
21
46.123961
0
LINE
8
Layer 1
10
61.331987
20
46.123961
11
60.430800
21
47.625100
0
LINE
8
Layer 1
10
60.430800
20
47.625100
11
59.714868
21
48.382720
0
LINE
8
Layer 1
10
59.714868
20
48.382720
11
58.979711
21
48.849197
0
LINE
8
Layer 1
10
58.979711
20
48.849197
11
58.260677
21
49.083132
0
LINE
8
Layer 1
10
58.260677
20
49.083132
11
57.593113
21
49.143125
0
LINE
8
Layer 1
10
57.593113
20
49.143125
11
56.553783
21
48.975691
0
LINE
8
Layer 1
10
56.553783
20
48.975691
11
56.144500
21
48.815700
0
LINE
8
Layer 1
10
56.144500
20
48.815700
11
55.734812
21
48.584183
0
LINE
8
Layer 1
10
55.734812
20
48.584183
11
54.811675
21
47.697812
0
LINE
8
Layer 1
10
54.811675
20
47.697812
11
54.300965
21
46.919142
0
LINE
8
Layer 1
10
54.300965
20
46.919142
11
53.833975
21
45.868861
0
LINE
8
Layer 1
10
53.833975
20
45.868861
11
53.468066
21
44.511002
0
LINE
8
Layer 1
10
53.468066
20
44.511002
11
53.260600
21
42.809600
0
LINE
8
Layer 1
10
53.260600
20
42.809600
11
53.091862
21
38.166213
0
LINE
8
Layer 1
10
53.091862
20
38.166213
11
53.145189
21
36.305877
0
LINE
8
Layer 1
10
53.145189
20
36.305877
11
53.339900
21
34.792800
0
LINE
8
Layer 1
10
53.339900
20
34.792800
11
53.827311
21
33.769187
0
LINE
8
Layer 1
10
53.827311
20
33.769187
11
54.441237
21
33.053150
0
LINE
8
Layer 1
10
54.441237
20
33.053150
11
55.483100
21
32.385100
0
LINE
8
Layer 1
10
55.483100
20
32.385100
11
56.994509
21
32.052692
0
LINE
8
Layer 1
10
56.994509
20
32.052692
11
58.426550
21
32.127113
0
LINE
8
Layer 1
10
58.426550
20
32.127113
11
59.650241
21
32.548802
0
LINE
8
Layer 1
10
59.650241
20
32.548802
11
60.536600
21
33.258200
0
LINE
8
Layer 1
10
60.536600
20
33.258200
11
60.986400
21
33.843587
0
LINE
8
Layer 1
10
60.986400
20
33.843587
11
61.295637
21
34.698102
0
LINE
8
Layer 1
10
61.295637
20
34.698102
11
61.436200
21
36.036300
0
LINE
8
Layer 1
10
61.436200
20
36.036300
11
61.133998
21
36.756480
0
LINE
8
Layer 1
10
61.133998
20
36.756480
11
60.725138
21
37.114513
0
LINE
8
Layer 1
10
60.725138
20
37.114513
11
60.241858
21
37.145114
0
LINE
8
Layer 1
10
60.241858
20
37.145114
11
59.716400
21
36.883000
0
LINE
8
Layer 1
10
59.716400
20
36.883000
11
59.335227
21
36.231473
0
LINE
8
Layer 1
10
59.335227
20
36.231473
11
59.088012
21
35.302138
0
LINE
8
Layer 1
10
59.088012
20
35.302138
11
58.711817
21
34.501783
0
LINE
8
Layer 1
10
58.711817
20
34.501783
11
58.393183
21
34.277096
0
LINE
8
Layer 1
10
58.393183
20
34.277096
11
57.943700
21
34.237200
0
LINE
8
Layer 1
10
57.943700
20
34.237200
11
57.369889
21
34.407911
0
LINE
8
Layer 1
10
57.369889
20
34.407911
11
56.944888
21
34.670413
0
LINE
8
Layer 1
10
56.944888
20
34.670413
11
56.462000
21
35.401300
0
LINE
8
Layer 1
10
56.462000
20
35.401300
11
56.101550
21
37.594037
0
LINE
8
Layer 1
10
56.101550
20
37.594037
11
56.038700
21
40.560700
0
LINE
8
Layer 1
10
56.038700
20
40.560700
11
56.144513
21
42.839413
0
LINE
8
Layer 1
10
56.144513
20
42.839413
11
56.299123
21
44.113970
0
LINE
8
Layer 1
10
56.299123
20
44.113970
11
56.567800
21
45.138000
0
LINE
8
Layer 1
10
56.567800
20
45.138000
11
56.832425
21
45.822588
0
LINE
8
Layer 1
10
56.832425
20
45.822588
11
57.176400
21
46.328600
0
LINE
8
Layer 1
10
57.176400
20
46.328600
11
57.702667
21
46.461730
0
LINE
8
Layer 1
10
57.702667
20
46.461730
11
58.072662
21
46.381513
0
LINE
8
Layer 1
10
58.072662
20
46.381513
11
58.318627
21
46.142539
0
LINE
8
Layer 1
10
58.318627
20
46.142539
11
58.472800
21
45.799400
0
LINE
8
Layer 1
10
58.472800
20
45.799400
11
58.760562
21
44.985825
0
LINE
8
Layer 1
10
58.760562
20
44.985825
11
59.107800
21
44.370700
0
LINE
8
Layer 1
10
59.107800
20
44.370700
11
60.172775
21
44.109400
0
LINE
8
Layer 1
10
60.172775
20
44.109400
11
60.722597
21
44.240453
0
LINE
8
Layer 1
10
60.722597
20
44.240453
11
61.198000
21
44.661700
0
LINE
8
Layer 1
10
61.198000
20
44.661700
11
61.198000
21
44.661700
0
LINE
8
Layer 1
10
65.325500
20
47.254600
11
64.940645
21
47.122345
0
LINE
8
Layer 1
10
64.940645
20
47.122345
11
64.548338
21
46.414587
0
LINE
8
Layer 1
10
64.548338
20
46.414587
11
64.220511
21
44.784086
0
LINE
8
Layer 1
10
64.220511
20
44.784086
11
64.029100
21
41.883600
0
LINE
8
Layer 1
10
64.029100
20
41.883600
11
63.695050
21
35.404637
0
LINE
8
Layer 1
10
63.695050
20
35.404637
11
63.499900
21
33.787400
0
LINE
8
Layer 1
10
63.499900
20
33.787400
11
63.374225
21
33.404169
0
LINE
8
Layer 1
10
63.374225
20
33.404169
11
63.347775
21
32.527325
0
LINE
8
Layer 1
10
63.347775
20
32.527325
11
63.536091
21
32.031697
0
LINE
8
Layer 1
10
63.536091
20
32.031697
11
63.946413
21
31.566144
0
LINE
8
Layer 1
10
63.946413
20
31.566144
11
64.644471
21
31.181825
0
LINE
8
Layer 1
10
64.644471
20
31.181825
11
65.696000
21
30.929900
0
LINE
8
Layer 1
10
65.696000
20
30.929900
11
68.741975
21
30.341200
0
LINE
8
Layer 1
10
68.741975
20
30.341200
11
69.293862
21
30.252734
0
LINE
8
Layer 1
10
69.293862
20
30.252734
11
69.664700
21
30.427200
0
LINE
8
Layer 1
10
69.664700
20
30.427200
11
69.973527
21
30.815384
0
LINE
8
Layer 1
10
69.973527
20
30.815384
11
70.091338
21
31.270525
0
LINE
8
Layer 1
10
70.091338
20
31.270525
11
69.995830
21
31.740553
0
LINE
8
Layer 1
10
69.995830
20
31.740553
11
69.664700
21
32.173400
0
LINE
8
Layer 1
10
69.664700
20
32.173400
11
69.030544
21
32.497117
0
LINE
8
Layer 1
10
69.030544
20
32.497117
11
68.183050
21
32.738962
0
LINE
8
Layer 1
10
68.183050
20
32.738962
11
67.335556
21
32.995677
0
LINE
8
Layer 1
10
67.335556
20
32.995677
11
66.701400
21
33.364000
0
LINE
8
Layer 1
10
66.701400
20
33.364000
11
67.098200
21
42.783200
0
LINE
8
Layer 1
10
67.098200
20
42.783200
11
67.247038
21
44.509600
0
LINE
8
Layer 1
10
67.247038
20
44.509600
11
67.265642
21
45.380234
0
LINE
8
Layer 1
10
67.265642
20
45.380234
11
67.098200
21
46.116900
0
LINE
8
Layer 1
10
67.098200
20
46.116900
11
66.618650
21
46.685750
0
LINE
8
Layer 1
10
66.618650
20
46.685750
11
66.075012
21
47.024747
0
LINE
8
Layer 1
10
66.075012
20
47.024747
11
65.325500
21
47.254600
0
LINE
8
Layer 1
10
65.325500
20
47.254600
11
65.325500
21
47.254600
0
LINE
8
Layer 1
10
71.490300
20
42.889000
11
71.322447
21
40.018684
0
LINE
8
Layer 1
10
71.322447
20
40.018684
11
71.278625
21
36.317425
0
LINE
8
Layer 1
10
71.278625
20
36.317425
11
71.453091
21
32.839403
0
LINE
8
Layer 1
10
71.453091
20
32.839403
11
71.651636
21
31.513538
0
LINE
8
Layer 1
10
71.651636
20
31.513538
11
71.940100
21
30.638800
0
LINE
8
Layer 1
10
71.940100
20
30.638800
11
72.513516
21
29.774806
0
LINE
8
Layer 1
10
72.513516
20
29.774806
11
73.134050
21
29.104275
0
LINE
8
Layer 1
10
73.134050
20
29.104275
11
74.347800
21
28.204700
0
LINE
8
Layer 1
10
74.347800
20
28.204700
11
75.812537
21
27.772261
0
LINE
8
Layer 1
10
75.812537
20
27.772261
11
76.511885
21
27.753549
0
LINE
8
Layer 1
10
76.511885
20
27.753549
11
77.175575
21
27.880562
0
LINE
8
Layer 1
10
77.175575
20
27.880562
11
77.793374
21
28.163844
0
LINE
8
Layer 1
10
77.793374
20
28.163844
11
78.355050
21
28.613933
0
LINE
8
Layer 1
10
78.355050
20
28.613933
11
78.850370
21
29.241371
0
LINE
8
Layer 1
10
78.850370
20
29.241371
11
79.269100
21
30.056700
0
LINE
8
Layer 1
10
79.269100
20
30.056700
11
79.793700
21
31.881119
0
LINE
8
Layer 1
10
79.793700
20
31.881119
11
80.112425
21
34.035425
0
LINE
8
Layer 1
10
80.112425
20
34.035425
11
80.459700
21
39.184900
0
LINE
8
Layer 1
10
80.459700
20
39.184900
11
80.488387
21
40.432406
0
LINE
8
Layer 1
10
80.488387
20
40.432406
11
80.317080
21
41.351562
0
LINE
8
Layer 1
10
80.317080
20
41.351562
11
80.006242
21
41.963763
0
LINE
8
Layer 1
10
80.006242
20
41.963763
11
79.616338
21
42.290400
0
LINE
8
Layer 1
10
79.616338
20
42.290400
11
79.207828
21
42.352869
0
LINE
8
Layer 1
10
79.207828
20
42.352869
11
78.841177
21
42.172562
0
LINE
8
Layer 1
10
78.841177
20
42.172562
11
78.576846
21
41.770875
0
LINE
8
Layer 1
10
78.576846
20
41.770875
11
78.475300
21
41.169200
0
LINE
8
Layer 1
10
78.475300
20
41.169200
11
78.336398
21
38.283206
0
LINE
8
Layer 1
10
78.336398
20
38.283206
11
78.058587
21
34.809325
0
LINE
8
Layer 1
10
78.058587
20
34.809325
11
77.802479
21
33.161208
0
LINE
8
Layer 1
10
77.802479
20
33.161208
11
77.433508
21
31.737256
0
LINE
8
Layer 1
10
77.433508
20
31.737256
11
76.925630
21
30.661183
0
LINE
8
Layer 1
10
76.925630
20
30.661183
11
76.252800
21
30.056700
0
LINE
8
Layer 1
10
76.252800
20
30.056700
11
75.565555
21
29.960022
0
LINE
8
Layer 1
10
75.565555
20
29.960022
11
75.021252
21
30.285333
0
LINE
8
Layer 1
10
75.021252
20
30.285333
11
74.604076
21
30.973412
0
LINE
8
Layer 1
10
74.604076
20
30.973412
11
74.298213
21
31.965038
0
LINE
8
Layer 1
10
74.298213
20
31.965038
11
73.957167
21
34.622048
0
LINE
8
Layer 1
10
73.957167
20
34.622048
11
73.871600
21
37.782600
0
LINE
8
Layer 1
10
73.871600
20
37.782600
11
73.792200
21
44.026700
0
LINE
8
Layer 1
10
73.792200
20
44.026700
11
73.681346
21
44.411912
0
LINE
8
Layer 1
10
73.681346
20
44.411912
11
73.436241
21
44.712161
0
LINE
8
Layer 1
10
73.436241
20
44.712161
11
73.098739
21
44.894583
0
LINE
8
Layer 1
10
73.098739
20
44.894583
11
72.710700
21
44.926313
0
LINE
8
Layer 1
10
72.710700
20
44.926313
11
72.313979
21
44.774484
0
LINE
8
Layer 1
10
72.313979
20
44.774484
11
71.950434
21
44.406233
0
LINE
8
Layer 1
10
71.950434
20
44.406233
11
71.661922
21
43.788693
0
LINE
8
Layer 1
10
71.661922
20
43.788693
11
71.490300
21
42.889000
0
LINE
8
Layer 1
10
71.490300
20
42.889000
11
71.490300
21
42.889000
0
LINE
8
Layer 1
10
87.259500
20
37.306300
11
87.600125
21
36.145475
0
LINE
8
Layer 1
10
87.600125
20
36.145475
11
87.603400
21
34.369500
0
LINE
8
Layer 1
10
87.603400
20
34.369500
11
87.321061
21
32.702606
0
LINE
8
Layer 1
10
87.321061
20
32.702606
11
86.932063
21
31.769925
0
LINE
8
Layer 1
10
86.932063
20
31.769925
11
86.587708
21
31.363106
0
LINE
8
Layer 1
10
86.587708
20
31.363106
11
86.439300
21
31.273800
0
LINE
8
Layer 1
10
86.439300
20
31.273800
11
87.085434
21
30.593352
0
LINE
8
Layer 1
10
87.085434
20
30.593352
11
87.342150
21
29.520962
0
LINE
8
Layer 1
10
87.342150
20
29.520962
11
87.187116
21
28.021917
0
LINE
8
Layer 1
10
87.187116
20
28.021917
11
86.598000
21
26.061500
0
LINE
8
Layer 1
10
86.598000
20
26.061500
11
86.088212
21
25.195789
0
LINE
8
Layer 1
10
86.088212
20
25.195789
11
85.416888
21
24.741519
0
LINE
8
Layer 1
10
85.416888
20
24.741519
11
84.650688
21
24.609083
0
LINE
8
Layer 1
10
84.650688
20
24.609083
11
83.856275
21
24.708875
0
LINE
8
Layer 1
10
83.856275
20
24.708875
11
82.449450
21
25.246719
0
LINE
8
Layer 1
10
82.449450
20
25.246719
11
81.729700
21
25.638200
0
LINE
8
Layer 1
10
81.729700
20
25.638200
11
81.663128
21
26.459637
0
LINE
8
Layer 1
10
81.663128
20
26.459637
11
81.772675
21
28.598225
0
LINE
8
Layer 1
10
81.772675
20
28.598225
11
81.926884
21
31.803425
0
LINE
8
Layer 1
10
81.926884
20
31.803425
11
81.994300
21
35.824700
0
LINE
8
Layer 1
10
81.994300
20
35.824700
11
82.110050
21
38.986413
0
LINE
8
Layer 1
10
82.110050
20
38.986413
11
82.364700
21
40.401900
0
LINE
8
Layer 1
10
82.364700
20
40.401900
11
82.556523
21
40.661961
0
LINE
8
Layer 1
10
82.556523
20
40.661961
11
82.807887
21
40.716138
0
LINE
8
Layer 1
10
82.807887
20
40.716138
11
83.211400
21
40.613600
0
LINE
8
Layer 1
10
83.211400
20
40.613600
11
84.243200
21
40.216700
0
LINE
8
Layer 1
10
84.243200
20
40.216700
11
85.658762
21
39.284075
0
LINE
8
Layer 1
10
85.658762
20
39.284075
11
86.598000
21
38.311700
0
LINE
8
Layer 1
10
86.598000
20
38.311700
11
87.259500
21
37.306300
0
LINE
8
Layer 1
10
87.259500
20
37.306300
11
87.259500
21
37.306300
0
LINE
8
Layer 1
10
84.428400
20
38.126500
11
84.223363
21
36.982175
0
LINE
8
Layer 1
10
84.223363
20
36.982175
11
84.093558
21
35.291331
0
LINE
8
Layer 1
10
84.093558
20
35.291331
11
84.058000
21
32.623200
0
LINE
8
Layer 1
10
84.058000
20
32.623200
11
84.385841
21
32.575250
0
LINE
8
Layer 1
10
84.385841
20
32.575250
11
85.093200
21
32.695975
0
LINE
8
Layer 1
10
85.093200
20
32.695975
11
85.459748
21
32.943610
0
LINE
8
Layer 1
10
85.459748
20
32.943610
11
85.765834
21
33.382238
0
LINE
8
Layer 1
10
85.765834
20
33.382238
11
85.959679
21
34.061465
0
LINE
8
Layer 1
10
85.959679
20
34.061465
11
85.989500
21
35.030900
0
LINE
8
Layer 1
10
85.989500
20
35.030900
11
85.667447
21
36.787089
0
LINE
8
Layer 1
10
85.667447
20
36.787089
11
85.139500
21
37.709812
0
LINE
8
Layer 1
10
85.139500
20
37.709812
11
84.646278
21
38.066980
0
LINE
8
Layer 1
10
84.646278
20
38.066980
11
84.428400
21
38.126500
0
LINE
8
Layer 1
10
84.428400
20
38.126500
11
84.428400
21
38.126500
0
LINE
8
Layer 1
10
84.058000
20
31.168000
11
83.933815
21
31.032799
0
LINE
8
Layer 1
10
83.933815
20
31.032799
11
83.853355
21
30.577623
0
LINE
8
Layer 1
10
83.853355
20
30.577623
11
83.790113
21
29.124063
0
LINE
8
Layer 1
10
83.790113
20
29.124063
11
83.819900
21
26.961100
0
LINE
8
Layer 1
10
83.819900
20
26.961100
11
84.030323
21
26.811869
0
LINE
8
Layer 1
10
84.030323
20
26.811869
11
84.511112
21
26.640325
0
LINE
8
Layer 1
10
84.511112
20
26.640325
11
84.782356
21
26.675631
0
LINE
8
Layer 1
10
84.782356
20
26.675631
11
85.036545
21
26.860694
0
LINE
8
Layer 1
10
85.036545
20
26.860694
11
85.245465
21
27.247291
0
LINE
8
Layer 1
10
85.245465
20
27.247291
11
85.380900
21
27.887200
0
LINE
8
Layer 1
10
85.380900
20
27.887200
11
85.501656
21
29.184892
0
LINE
8
Layer 1
10
85.501656
20
29.184892
11
85.414025
21
30.053462
0
LINE
8
Layer 1
10
85.414025
20
30.053462
11
84.979106
21
30.659102
0
LINE
8
Layer 1
10
84.979106
20
30.659102
11
84.058000
21
31.168000
0
LINE
8
Layer 1
10
84.058000
20
31.168000
11
84.058000
21
31.168000
0
LINE
8
Layer 1
10
6.217700
20
40.613600
11
6.138330
21
33.258200
0
LINE
8
Layer 1
10
6.138330
20
33.258200
11
6.058950
21
27.754900
0
LINE
8
Layer 1
10
6.058950
20
27.754900
11
6.106802
21
26.965894
0
LINE
8
Layer 1
10
6.106802
20
26.965894
11
6.332628
21
26.413777
0
LINE
8
Layer 1
10
6.332628
20
26.413777
11
6.681236
21
26.082424
0
LINE
8
Layer 1
10
6.681236
20
26.082424
11
7.097437
21
25.955712
0
LINE
8
Layer 1
10
7.097437
20
25.955712
11
7.526041
21
26.017518
0
LINE
8
Layer 1
10
7.526041
20
26.017518
11
7.911856
21
26.251717
0
LINE
8
Layer 1
10
7.911856
20
26.251717
11
8.199692
21
26.642186
0
LINE
8
Layer 1
10
8.199692
20
26.642186
11
8.334360
21
27.172800
0
LINE
8
Layer 1
10
8.334360
20
27.172800
11
8.598950
21
30.982800
0
LINE
8
Layer 1
10
8.598950
20
30.982800
11
9.964850
21
31.617800
0
LINE
8
Layer 1
10
9.964850
20
31.617800
11
10.887158
21
32.098997
0
LINE
8
Layer 1
10
10.887158
20
32.098997
11
11.271200
21
32.411500
0
LINE
8
Layer 1
10
11.271200
20
32.411500
11
11.205098
21
31.736831
0
LINE
8
Layer 1
10
11.205098
20
31.736831
11
11.178662
21
30.030275
0
LINE
8
Layer 1
10
11.178662
20
30.030275
11
11.271270
21
28.244331
0
LINE
8
Layer 1
10
11.271270
20
28.244331
11
11.387021
21
27.619245
0
LINE
8
Layer 1
10
11.387021
20
27.619245
11
11.562300
21
27.331500
0
LINE
8
Layer 1
10
11.562300
20
27.331500
11
12.133620
21
27.223216
0
LINE
8
Layer 1
10
12.133620
20
27.223216
11
12.858738
21
27.338150
0
LINE
8
Layer 1
10
12.858738
20
27.338150
11
13.504486
21
27.859884
0
LINE
8
Layer 1
10
13.504486
20
27.859884
11
13.724733
21
28.330671
0
LINE
8
Layer 1
10
13.724733
20
28.330671
11
13.837700
21
28.972000
0
LINE
8
Layer 1
10
13.837700
20
28.972000
11
14.208100
21
35.004400
0
LINE
8
Layer 1
10
14.208100
20
35.004400
11
14.462750
21
38.963262
0
LINE
8
Layer 1
10
14.462750
20
38.963262
11
14.554122
21
41.608698
0
LINE
8
Layer 1
10
14.554122
20
41.608698
11
14.419800
21
43.100700
0
LINE
8
Layer 1
10
14.419800
20
43.100700
11
14.181311
21
43.655030
0
LINE
8
Layer 1
10
14.181311
20
43.655030
11
13.831511
21
43.998211
0
LINE
8
Layer 1
10
13.831511
20
43.998211
11
13.412878
21
44.144814
0
LINE
8
Layer 1
10
13.412878
20
44.144814
11
12.967887
21
44.109412
0
LINE
8
Layer 1
10
12.967887
20
44.109412
11
12.539018
21
43.906578
0
LINE
8
Layer 1
10
12.539018
20
43.906578
11
12.168745
21
43.550883
0
LINE
8
Layer 1
10
12.168745
20
43.550883
11
11.899547
21
43.056899
0
LINE
8
Layer 1
10
11.899547
20
43.056899
11
11.773900
21
42.439200
0
LINE
8
Layer 1
10
11.773900
20
42.439200
11
11.714412
21
41.099800
0
LINE
8
Layer 1
10
11.714412
20
41.099800
11
11.694600
21
39.661100
0
LINE
8
Layer 1
10
11.694600
20
39.661100
11
11.545750
21
36.853225
0
LINE
8
Layer 1
10
11.545750
20
36.853225
11
11.377100
21
34.819200
0
LINE
8
Layer 1
10
11.377100
20
34.819200
11
10.305525
21
34.458737
0
LINE
8
Layer 1
10
10.305525
20
34.458737
11
9.434872
21
34.093702
0
LINE
8
Layer 1
10
9.434872
20
34.093702
11
8.757700
21
33.681500
0
LINE
8
Layer 1
10
8.757700
20
33.681500
11
8.903220
21
36.161988
0
LINE
8
Layer 1
10
8.903220
20
36.161988
11
8.969360
21
39.555300
0
LINE
8
Layer 1
10
8.969360
20
39.555300
11
8.956136
21
40.825288
0
LINE
8
Layer 1
10
8.956136
20
40.825288
11
8.902393
21
41.400736
0
LINE
8
Layer 1
10
8.902393
20
41.400736
11
8.704780
21
41.936500
0
LINE
8
Layer 1
10
8.704780
20
41.936500
11
8.338498
21
42.246988
0
LINE
8
Layer 1
10
8.338498
20
42.246988
11
7.619989
21
42.455775
0
LINE
8
Layer 1
10
7.619989
20
42.455775
11
7.213915
21
42.369324
0
LINE
8
Layer 1
10
7.213915
20
42.369324
11
6.822105
21
42.074200
0
LINE
8
Layer 1
10
6.822105
20
42.074200
11
6.478664
21
41.509320
0
LINE
8
Layer 1
10
6.478664
20
41.509320
11
6.217700
21
40.613600
0
LINE
8
Layer 1
10
6.217700
20
40.613600
11
6.217700
21
40.613600
0
LINE
8
Layer 1
10
34.766200
20
43.815100
11
34.886914
21
44.051569
0
LINE
8
Layer 1
10
34.886914
20
44.051569
11
34.977863
21
44.714675
0
LINE
8
Layer 1
10
34.977863
20
44.714675
11
34.632255
21
45.734969
0
LINE
8
Layer 1
10
34.632255
20
45.734969
11
34.168620
21
46.357358
0
LINE
8
Layer 1
10
34.168620
20
46.357358
11
33.443300
21
47.043000
0
LINE
8
Layer 1
10
33.443300
20
47.043000
11
32.599589
21
47.610562
0
LINE
8
Layer 1
10
32.599589
20
47.610562
11
31.818197
21
47.917364
0
LINE
8
Layer 1
10
31.818197
20
47.917364
11
31.104393
21
48.012706
0
LINE
8
Layer 1
10
31.104393
20
48.012706
11
30.463450
21
47.945887
0
LINE
8
Layer 1
10
30.463450
20
47.945887
11
29.421228
21
47.522967
0
LINE
8
Layer 1
10
29.421228
20
47.522967
11
28.733700
21
47.043000
0
LINE
8
Layer 1
10
28.733700
20
47.043000
11
28.183067
21
46.092981
0
LINE
8
Layer 1
10
28.183067
20
46.092981
11
27.622487
21
44.006900
0
LINE
8
Layer 1
10
27.622487
20
44.006900
11
27.200789
21
40.799644
0
LINE
8
Layer 1
10
27.200789
20
40.799644
11
27.066800
21
36.486100
0
LINE
8
Layer 1
10
27.066800
20
36.486100
11
27.120959
21
35.569981
0
LINE
8
Layer 1
10
27.120959
20
35.569981
11
27.539750
21
33.582300
0
LINE
8
Layer 1
10
27.539750
20
33.582300
11
28.006029
21
32.543190
0
LINE
8
Layer 1
10
28.006029
20
32.543190
11
28.707641
21
31.664069
0
LINE
8
Layer 1
10
28.707641
20
31.664069
11
29.692645
21
31.087563
0
LINE
8
Layer 1
10
29.692645
20
31.087563
11
31.009100
21
30.956300
0
LINE
8
Layer 1
10
31.009100
20
30.956300
11
32.341988
21
31.177316
0
LINE
8
Layer 1
10
32.341988
20
31.177316
11
33.372569
21
31.538794
0
LINE
8
Layer 1
10
33.372569
20
31.538794
11
34.143322
21
32.005074
0
LINE
8
Layer 1
10
34.143322
20
32.005074
11
34.696725
21
32.540500
0
LINE
8
Layer 1
10
34.696725
20
32.540500
11
35.321394
21
33.676156
0
LINE
8
Layer 1
10
35.321394
20
33.676156
11
35.586400
21
34.660500
0
LINE
8
Layer 1
10
35.586400
20
34.660500
11
35.624431
21
35.378603
0
LINE
8
Layer 1
10
35.624431
20
35.378603
11
35.434275
21
35.900750
0
LINE
8
Layer 1
10
35.434275
20
35.900750
11
35.095281
21
36.219497
0
LINE
8
Layer 1
10
35.095281
20
36.219497
11
34.686800
21
36.327400
0
LINE
8
Layer 1
10
34.686800
20
36.327400
11
34.276706
21
36.272819
0
LINE
8
Layer 1
10
34.276706
20
36.272819
11
33.886450
21
36.069400
0
LINE
8
Layer 1
10
33.886450
20
36.069400
11
33.525969
21
35.657631
0
LINE
8
Layer 1
10
33.525969
20
35.657631
11
33.205200
21
34.978000
0
LINE
8
Layer 1
10
33.205200
20
34.978000
11
32.734289
21
34.107336
0
LINE
8
Layer 1
10
32.734289
20
34.107336
11
32.017837
21
33.390487
0
LINE
8
Layer 1
10
32.017837
20
33.390487
11
31.596213
21
33.196710
0
LINE
8
Layer 1
10
31.596213
20
33.196710
11
31.147617
21
33.169745
0
LINE
8
Layer 1
10
31.147617
20
33.169745
11
30.683522
21
33.352380
0
LINE
8
Layer 1
10
30.683522
20
33.352380
11
30.215400
21
33.787400
0
LINE
8
Layer 1
10
30.215400
20
33.787400
11
30.068641
21
34.260756
0
LINE
8
Layer 1
10
30.068641
20
34.260756
11
29.795375
21
35.669250
0
LINE
8
Layer 1
10
29.795375
20
35.669250
11
29.646122
21
37.995519
0
LINE
8
Layer 1
10
29.646122
20
37.995519
11
29.871400
21
41.222200
0
LINE
8
Layer 1
10
29.871400
20
41.222200
11
30.471275
21
44.047016
0
LINE
8
Layer 1
10
30.471275
20
44.047016
11
30.831820
21
44.875430
0
LINE
8
Layer 1
10
30.831820
20
44.875430
11
31.217475
21
45.346350
0
LINE
8
Layer 1
10
31.217475
20
45.346350
11
31.616771
21
45.483651
0
LINE
8
Layer 1
10
31.616771
20
45.483651
11
32.018237
21
45.311209
0
LINE
8
Layer 1
10
32.018237
20
45.311209
11
32.410404
21
44.852900
0
LINE
8
Layer 1
10
32.410404
20
44.852900
11
32.781800
21
44.132600
0
LINE
8
Layer 1
10
32.781800
20
44.132600
11
33.426750
21
43.557113
0
LINE
8
Layer 1
10
33.426750
20
43.557113
11
34.065481
21
43.395880
0
LINE
8
Layer 1
10
34.065481
20
43.395880
11
34.415070
21
43.509678
0
LINE
8
Layer 1
10
34.415070
20
43.509678
11
34.766200
21
43.815100
0
LINE
8
Layer 1
10
34.766200
20
43.815100
11
34.766200
21
43.815100
0
LINE
8
Layer 1
10
126.999000
20
15.832200
11
126.954000
21
16.214300
0
LINE
8
Layer 1
10
126.954000
20
16.214300
11
125.652000
21
15.034800
0
LINE
8
Layer 1
10
125.652000
20
15.034800
11
124.405000
21
13.692600
0
LINE
8
Layer 1
10
124.405000
20
13.692600
11
124.477000
21
13.500700
0
LINE
8
Layer 1
10
124.477000
20
13.500700
11
125.177000
21
13.263700
0
LINE
8
Layer 1
10
125.177000
20
13.263700
11
126.110000
21
13.063100
0
LINE
8
Layer 1
10
126.110000
20
13.063100
11
126.407750
21
13.692000
0
LINE
8
Layer 1
10
126.407750
20
13.692000
11
126.893000
21
15.343000
0
LINE
8
Layer 1
10
126.893000
20
15.343000
11
126.999000
21
15.832200
0
LINE
8
Layer 1
10
126.999000
20
15.832200
11
126.999000
21
15.832200
0
LINE
8
Layer 1
10
128.069000
20
20.007900
11
128.521375
21
20.108538
0
LINE
8
Layer 1
10
128.521375
20
20.108538
11
128.994000
21
20.055800
0
LINE
8
Layer 1
10
128.994000
20
20.055800
11
129.704000
21
19.668400
0
LINE
8
Layer 1
10
129.704000
20
19.668400
11
129.998750
21
19.274950
0
LINE
8
Layer 1
10
129.998750
20
19.274950
11
130.088000
21
18.801100
0
LINE
8
Layer 1
10
130.088000
20
18.801100
11
129.583000
21
16.274100
0
LINE
8
Layer 1
10
129.583000
20
16.274100
11
129.286000
21
15.071800
0
LINE
8
Layer 1
10
129.286000
20
15.071800
11
129.017000
21
13.886500
0
LINE
8
Layer 1
10
129.017000
20
13.886500
11
128.868000
21
13.236100
0
LINE
8
Layer 1
10
128.868000
20
13.236100
11
128.739000
21
12.481600
0
LINE
8
Layer 1
10
128.739000
20
12.481600
11
129.014000
21
12.309600
0
LINE
8
Layer 1
10
129.014000
20
12.309600
11
129.614000
21
11.606300
0
LINE
8
Layer 1
10
129.614000
20
11.606300
11
129.699000
21
10.819200
0
LINE
8
Layer 1
10
129.699000
20
10.819200
11
129.251000
21
10.249300
0
LINE
8
Layer 1
10
129.251000
20
10.249300
11
128.580000
21
10.231500
0
LINE
8
Layer 1
10
128.580000
20
10.231500
11
128.143000
21
10.348800
0
LINE
8
Layer 1
10
128.143000
20
10.348800
11
128.032000
21
9.934680
0
LINE
8
Layer 1
10
128.032000
20
9.934680
11
127.466000
21
8.188170
0
LINE
8
Layer 1
10
127.466000
20
8.188170
11
126.792000
21
6.593790
0
LINE
8
Layer 1
10
126.792000
20
6.593790
11
126.139500
21
6.275499
0
LINE
8
Layer 1
10
126.139500
20
6.275499
11
125.181000
21
6.285820
0
LINE
8
Layer 1
10
125.181000
20
6.285820
11
124.853000
21
6.349320
0
LINE
8
Layer 1
10
124.853000
20
6.349320
11
124.448000
21
6.679520
0
LINE
8
Layer 1
10
124.448000
20
6.679520
11
124.313500
21
7.418299
0
LINE
8
Layer 1
10
124.313500
20
7.418299
11
124.515000
21
8.584510
0
LINE
8
Layer 1
10
124.515000
20
8.584510
11
124.614000
21
8.952550
0
LINE
8
Layer 1
10
124.614000
20
8.952550
11
124.754000
21
9.383290
0
LINE
8
Layer 1
10
124.754000
20
9.383290
11
125.202000
21
10.964200
0
LINE
8
Layer 1
10
125.202000
20
10.964200
11
124.523000
21
11.097000
0
LINE
8
Layer 1
10
124.523000
20
11.097000
11
122.370000
21
11.525900
0
LINE
8
Layer 1
10
122.370000
20
11.525900
11
121.733000
21
11.819800
0
LINE
8
Layer 1
10
121.733000
20
11.819800
11
121.401000
21
12.327800
0
LINE
8
Layer 1
10
121.401000
20
12.327800
11
121.485000
21
13.192800
0
LINE
8
Layer 1
10
121.485000
20
13.192800
11
121.505000
21
13.360000
0
LINE
8
Layer 1
10
121.505000
20
13.360000
11
121.548000
21
13.521100
0
LINE
8
Layer 1
10
121.548000
20
13.521100
11
122.071000
21
14.367200
0
LINE
8
Layer 1
10
122.071000
20
14.367200
11
124.198000
21
16.509000
0
LINE
8
Layer 1
10
124.198000
20
16.509000
11
127.063000
21
19.291100
0
LINE
8
Layer 1
10
127.063000
20
19.291100
11
128.069000
21
20.007900
0
LINE
8
Layer 1
10
128.069000
20
20.007900
11
128.069000
21
20.007900
 0 
ENDSEC
 0 
EOF