  0
SECTION
  2
HEADER
  9
$ACADVER
  1
AC1006
  9
$EXTMIN
 10
0.000000
 20
0.000000
 30
0.000000
  9
$EXTMAX
 10
560.000000
 20
560.000000
 30
0.000000
  0
ENDSEC
  0
SECTION
  2
ENTITIES
  0
POLYLINE
  8
0
 66
1
 70
1
  0
VERTEX
  8
0
 10
258.500000
 20
484.892817
 42
0.072388
  0
VERTEX
  8
0
 10
200.805057
 20
470.204960
 42
0.070793
  0
VERTEX
  8
0
 10
149.205305
 20
439.613239
 42
0.070844
  0
VERTEX
  8
0
 10
108.217263
 20
395.865124
 42
0.072665
  0
VERTEX
  8
0
 10
81.495419
 20
342.775435
 42
0.087424
  0
VERTEX
  8
0
 10
70.365499
 20
267.520458
 42
0.090062
  0
VERTEX
  8
0
 10
85.857879
 20
193.827981
 42
0.090358
  0
VERTEX
  8
0
 10
126.203008
 20
130.477282
 42
0.088711
  0
VERTEX
  8
0
 10
186.530296
 20
84.945268
 42
0.012805
  0
VERTEX
  8
0
 10
195.744653
 20
80.562595
 42
0.012834
  0
VERTEX
  8
0
 10
205.164416
 20
76.660896
 42
0.010908
  0
VERTEX
  8
0
 10
213.470679
 20
73.673894
 42
0.081025
  0
VERTEX
  8
0
 10
217.601930
 20
73.000000
 42
0.074219
  0
VERTEX
  8
0
 10
220.344336
 20
73.409331
 42
0.060094
  0
VERTEX
  8
0
 10
223.068318
 20
74.613960
 42
0.061665
  0
VERTEX
  8
0
 10
225.355076
 20
76.387231
 42
0.090371
  0
VERTEX
  8
0
 10
226.805315
 20
78.472058
 42
0.101361
  0
VERTEX
  8
0
 10
227.655414
 20
82.177888
 42
0.002177
  0
VERTEX
  8
0
 10
228.013304
 20
100.906490
 42
0.001263
  0
VERTEX
  8
0
 10
228.249928
 20
120.259688
 42
0.201434
  0
VERTEX
  8
0
 10
227.450706
 20
122.215960
 42
0.207131
  0
VERTEX
  8
0
 10
227.031045
 20
122.382078
 42
0.017007
  0
VERTEX
  8
0
 10
225.828810
 20
122.303116
 42
0.020563
  0
VERTEX
  8
0
 10
224.349941
 20
122.093633
 42
0.014315
  0
VERTEX
  8
0
 10
222.700706
 20
121.741312
 42
-0.035924
  0
VERTEX
  8
0
 10
220.318246
 20
121.339026
 42
-0.007365
  0
VERTEX
  8
0
 10
216.062082
 20
120.994681
 42
-0.007717
  0
VERTEX
  8
0
 10
211.093658
 20
120.743236
 42
-0.007185
  0
VERTEX
  8
0
 10
206.000000
 20
120.637467
 42
-0.022023
  0
VERTEX
  8
0
 10
195.874725
 20
121.018830
 42
-0.040959
  0
VERTEX
  8
0
 10
187.773921
 20
122.355716
 42
-0.045778
  0
VERTEX
  8
0
 10
180.623687
 20
124.860279
 42
-0.036548
  0
VERTEX
  8
0
 10
173.458475
 20
128.788421
 42
-0.032430
  0
VERTEX
  8
0
 10
167.903810
 20
132.918766
 42
-0.048590
  0
VERTEX
  8
0
 10
163.701487
 20
137.257097
 42
-0.040275
  0
VERTEX
  8
0
 10
159.904036
 20
142.905885
 42
-0.015239
  0
VERTEX
  8
0
 10
155.501672
 20
151.343825
 42
0.014723
  0
VERTEX
  8
0
 10
151.005155
 20
159.983942
 42
0.028367
  0
VERTEX
  8
0
 10
146.822925
 20
166.566388
 42
0.034628
  0
VERTEX
  8
0
 10
142.597175
 20
171.665986
 42
0.043353
  0
VERTEX
  8
0
 10
137.991723
 20
175.729385
 42
-0.005679
  0
VERTEX
  8
0
 10
131.640532
 20
180.534142
 42
-0.029054
  0
VERTEX
  8
0
 10
128.307933
 20
183.440034
 42
-0.055665
  0
VERTEX
  8
0
 10
126.558328
 20
185.584324
 42
-0.144281
  0
VERTEX
  8
0
 10
126.000000
 20
187.478913
 42
-0.215113
  0
VERTEX
  8
0
 10
126.920372
 20
189.519197
 42
-0.096796
  0
VERTEX
  8
0
 10
129.510645
 20
191.037821
 42
-0.070822
  0
VERTEX
  8
0
 10
133.337149
 20
191.797055
 42
-0.047706
  0
VERTEX
  8
0
 10
137.793874
 20
191.614774
 42
-0.069803
  0
VERTEX
  8
0
 10
145.898642
 20
189.322813
 42
-0.054314
  0
VERTEX
  8
0
 10
153.839656
 20
184.739156
 42
-0.049995
  0
VERTEX
  8
0
 10
161.213270
 20
178.114790
 42
-0.041785
  0
VERTEX
  8
0
 10
167.630347
 20
169.768262
 42
0.032990
  0
VERTEX
  8
0
 10
173.604396
 20
161.708867
 42
0.049332
  0
VERTEX
  8
0
 10
179.902703
 20
155.621393
 42
0.053526
  0
VERTEX
  8
0
 10
186.848511
 20
151.239164
 42
0.049475
  0
VERTEX
  8
0
 10
194.749724
 20
148.291951
 42
0.049622
  0
VERTEX
  8
0
 10
200.821503
 20
147.318377
 42
0.032469
  0
VERTEX
  8
0
 10
207.916759
 20
147.354462
 42
0.031547
  0
VERTEX
  8
0
 10
215.233249
 20
148.333880
 42
0.036833
  0
VERTEX
  8
0
 10
221.988234
 20
150.201776
 42
0.010582
  0
VERTEX
  8
0
 10
225.947167
 20
151.712651
 42
0.083098
  0
VERTEX
  8
0
 10
227.618191
 20
152.740744
 42
0.127456
  0
VERTEX
  8
0
 10
228.536070
 20
154.082745
 42
0.037729
  0
VERTEX
  8
0
 10
229.207445
 20
156.500000
 42
-0.025109
  0
VERTEX
  8
0
 10
230.438670
 20
161.409842
 42
-0.026012
  0
VERTEX
  8
0
 10
232.144235
 20
166.112615
 42
-0.025569
  0
VERTEX
  8
0
 10
234.359365
 20
170.685930
 42
-0.022589
  0
VERTEX
  8
0
 10
237.115763
 20
175.208547
 42
0.000000
  0
VERTEX
  8
0
 10
240.958848
 20
180.917094
 42
0.000000
  0
VERTEX
  8
0
 10
237.229424
 20
181.494295
 42
-0.011575
  0
VERTEX
  8
0
 10
223.043737
 20
184.027314
 42
-0.020480
  0
VERTEX
  8
0
 10
211.501191
 20
186.861791
 42
-0.023653
  0
VERTEX
  8
0
 10
201.482953
 20
190.282716
 42
-0.024845
  0
VERTEX
  8
0
 10
192.000000
 20
194.586341
 42
-0.066626
  0
VERTEX
  8
0
 10
174.074478
 20
207.081935
 42
-0.072877
  0
VERTEX
  8
0
 10
160.688829
 20
223.517512
 42
-0.066551
  0
VERTEX
  8
0
 10
151.736392
 20
244.395939
 42
-0.044018
  0
VERTEX
  8
0
 10
146.950383
 20
270.085568
 42
-0.034640
  0
VERTEX
  8
0
 10
146.427807
 20
289.466242
 42
-0.048341
  0
VERTEX
  8
0
 10
148.827320
 20
306.629804
 42
-0.052095
  0
VERTEX
  8
0
 10
154.256263
 20
321.996511
 42
-0.051200
  0
VERTEX
  8
0
 10
162.768737
 20
336.005767
 42
0.000000
  0
VERTEX
  8
0
 10
167.697268
 20
342.511534
 42
0.000000
  0
VERTEX
  8
0
 10
166.141734
 20
346.505767
 42
-0.052050
  0
VERTEX
  8
0
 10
165.387920
 20
349.257652
 42
-0.021527
  0
VERTEX
  8
0
 10
164.924027
 20
353.094728
 42
-0.014708
  0
VERTEX
  8
0
 10
164.665752
 20
358.488008
 42
-0.004728
  0
VERTEX
  8
0
 10
164.593787
 20
366.500000
 42
-0.004694
  0
VERTEX
  8
0
 10
164.684748
 20
375.722169
 42
-0.020694
  0
VERTEX
  8
0
 10
165.014121
 20
381.147686
 42
-0.029928
  0
VERTEX
  8
0
 10
165.726332
 20
385.509526
 42
-0.018855
  0
VERTEX
  8
0
 10
167.050686
 20
390.500000
 42
0.000000
  0
VERTEX
  8
0
 10
169.500000
 20
398.500000
 42
0.000000
  0
VERTEX
  8
0
 10
173.795331
 20
398.809713
 42
-0.079891
  0
VERTEX
  8
0
 10
182.520751
 20
398.044599
 42
-0.027629
  0
VERTEX
  8
0
 10
194.633161
 20
394.269217
 42
-0.026588
  0
VERTEX
  8
0
 10
207.767432
 20
388.551930
 42
-0.027624
  0
VERTEX
  8
0
 10
220.048208
 20
381.537435
 42
0.000000
  0
VERTEX
  8
0
 10
227.269364
 20
376.866093
 42
0.000000
  0
VERTEX
  8
0
 10
239.884682
 20
379.387301
 42
-0.023480
  0
VERTEX
  8
0
 10
261.255101
 20
382.623759
 42
-0.027412
  0
VERTEX
  8
0
 10
281.754480
 20
383.619638
 42
-0.027623
  0
VERTEX
  8
0
 10
302.102599
 20
382.366659
 42
-0.024549
  0
VERTEX
  8
0
 10
323.018496
 20
378.866261
 42
0.000000
  0
VERTEX
  8
0
 10
332.536992
 20
376.788587
 42
0.000000
  0
VERTEX
  8
0
 10
342.018496
 20
382.567812
 42
-0.018310
  0
VERTEX
  8
0
 10
354.115906
 20
389.346975
 42
-0.028136
  0
VERTEX
  8
0
 10
365.085575
 20
394.218196
 42
-0.032804
  0
VERTEX
  8
0
 10
374.963264
 20
397.231179
 42
-0.051961
  0
VERTEX
  8
0
 10
383.733134
 20
398.347876
 42
0.000000
  0
VERTEX
  8
0
 10
390.397193
 20
398.500000
 42
0.000000
  0
VERTEX
  8
0
 10
392.214084
 20
393.660700
 42
-0.043590
  0
VERTEX
  8
0
 10
395.131726
 20
383.201360
 42
-0.033921
  0
VERTEX
  8
0
 10
396.511753
 20
371.469613
 42
-0.033610
  0
VERTEX
  8
0
 10
396.297730
 20
359.525648
 42
-0.040174
  0
VERTEX
  8
0
 10
394.444883
 20
348.426914
 42
0.000000
  0
VERTEX
  8
0
 10
392.840814
 20
342.030860
 42
0.000000
  0
VERTEX
  8
0
 10
396.303029
 20
337.765430
 42
-0.047560
  0
VERTEX
  8
0
 10
404.776128
 20
325.022071
 42
-0.052375
  0
VERTEX
  8
0
 10
410.368542
 20
311.303181
 42
-0.048370
  0
VERTEX
  8
0
 10
413.281174
 20
295.804420
 42
-0.032096
  0
VERTEX
  8
0
 10
413.732501
 20
277.701300
 42
-0.045482
  0
VERTEX
  8
0
 10
410.022851
 20
249.358723
 42
-0.070527
  0
VERTEX
  8
0
 10
401.303094
 20
226.323426
 42
-0.077917
  0
VERTEX
  8
0
 10
387.322995
 20
208.243552
 42
-0.070699
  0
VERTEX
  8
0
 10
368.041785
 20
194.597388
 42
-0.023507
  0
VERTEX
  8
0
 10
358.541479
 20
190.266345
 42
-0.025227
  0
VERTEX
  8
0
 10
348.895110
 20
186.959108
 42
-0.020687
  0
VERTEX
  8
0
 10
337.456433
 20
184.178327
 42
-0.009245
  0
VERTEX
  8
0
 10
322.208087
 20
181.425336
 42
0.000000
  0
VERTEX
  8
0
 10
318.916174
 20
180.893648
 42
0.000000
  0
VERTEX
  8
0
 10
321.976448
 20
177.029737
 42
-0.037416
  0
VERTEX
  8
0
 10
324.725294
 20
172.968821
 42
-0.024668
  0
VERTEX
  8
0
 10
327.285035
 20
167.941234
 42
-0.024095
  0
VERTEX
  8
0
 10
329.414728
 20
162.505683
 42
-0.028784
  0
VERTEX
  8
0
 10
330.869730
 20
157.200779
 42
-0.041377
  0
VERTEX
  8
0
 10
331.368223
 20
153.310215
 42
-0.004242
  0
VERTEX
  8
0
 10
331.704599
 20
144.033606
 42
-0.004637
  0
VERTEX
  8
0
 10
331.929079
 20
131.892779
 42
-0.002303
  0
VERTEX
  8
0
 10
332.000000
 20
116.497832
 42
0.001849
  0
VERTEX
  8
0
 10
332.061827
 20
99.779929
 42
0.006003
  0
VERTEX
  8
0
 10
332.276951
 20
88.693542
 42
0.005206
  0
VERTEX
  8
0
 10
332.603530
 20
80.888988
 42
0.094100
  0
VERTEX
  8
0
 10
333.194685
 20
78.472058
 42
0.090371
  0
VERTEX
  8
0
 10
334.644924
 20
76.387231
 42
0.061665
  0
VERTEX
  8
0
 10
336.931682
 20
74.613960
 42
0.060094
  0
VERTEX
  8
0
 10
339.655664
 20
73.409331
 42
0.074219
  0
VERTEX
  8
0
 10
342.398070
 20
73.000000
 42
0.081025
  0
VERTEX
  8
0
 10
346.529321
 20
73.673894
 42
0.010908
  0
VERTEX
  8
0
 10
354.835584
 20
76.660896
 42
0.012834
  0
VERTEX
  8
0
 10
364.255347
 20
80.562595
 42
0.012805
  0
VERTEX
  8
0
 10
373.469704
 20
84.945268
 42
0.081104
  0
VERTEX
  8
0
 10
429.316854
 20
125.786578
 42
0.082525
  0
VERTEX
  8
0
 10
468.877971
 20
182.049136
 42
0.082265
  0
VERTEX
  8
0
 10
488.199708
 20
248.244034
 42
0.079894
  0
VERTEX
  8
0
 10
485.441843
 20
317.837351
 42
0.049988
  0
VERTEX
  8
0
 10
473.395704
 20
356.924675
 42
0.049052
  0
VERTEX
  8
0
 10
453.774763
 20
393.109555
 42
0.048665
  0
VERTEX
  8
0
 10
427.311926
 20
425.032973
 42
0.047632
  0
VERTEX
  8
0
 10
395.000000
 20
451.495798
 42
0.024105
  0
VERTEX
  8
0
 10
384.893071
 20
457.592937
 42
0.010969
  0
VERTEX
  8
0
 10
371.148005
 20
464.621325
 42
0.010996
  0
VERTEX
  8
0
 10
356.989132
 20
471.093442
 42
0.022079
  0
VERTEX
  8
0
 10
345.500000
 20
475.452198
 42
0.028009
  0
VERTEX
  8
0
 10
324.637491
 20
481.056860
 42
0.024594
  0
VERTEX
  8
0
 10
302.353941
 20
484.590539
 42
0.024654
  0
VERTEX
  8
0
 10
279.893000
 20
485.912588
 42
0.028571
  0
SEQEND
  0
ENDSEC
  0
EOF
